<svg xmlns:xlink="http://www.w3.org/1999/xlink" viewBox="0 0 2100 1050" style="shape-rendering:geometricPrecision; text-rendering:geometricPrecision; image-rendering:optimizeQuality; fill-rule:evenodd; clip-rule:evenodd" height="900px" width="2100px" xml:space="preserve" xmlns="http://www.w3.org/2000/svg">
 <defs>
  <style type="text/css">
   
    .fil1 {fill:#1E3941}
    .fil2 {fill:#485559}
    .fil3 {fill:#495A64}
    .fil4 {fill:#F5F6F6}
    .fil0 {fill:#1D3A41;fill-rule:nonzero}
   
  </style>
 </defs>
 <g id="图层_x0020_1">
  <metadata id="CorelCorpID_0Corel-Layer"></metadata>
  <path d="M649.932 640.559l-12.6087 -58.342 -56.8538 0 -11.371 50.3628c-1.66925,7.97918 -1.66925,14.3734 0,19.2398 1.7263,4.86638 5.49762,7.30081 11.371,7.30081l3.82589 0 0 7.97794 -46.7751 0 0 -7.97794 3.82589 0c3.34099,0 6.30621,-1.07522 8.83737,-3.2827 2.53364,-2.20748 4.20538,-5.99865 5.06729,-11.3177l49.2529 -202.925 18.9149 -6.62121 48.0152 209.546c1.67049,5.31904 3.77132,9.1102 6.30497,11.3177 2.5324,2.20748 5.49638,3.2827 8.83737,3.2827l3.77256 0 0 7.97794 -54.2656 0 0 -7.97794 5.01148 0c5.06605,0 8.24457,-1.52788 9.48473,-4.64067 1.29349,-3.1128 1.0777,-7.75223 -0.647363,-13.9208zm-13.8488 -66.3212l-25.2744 -110.064 -1.29225 0 -26.5133 110.064 53.08 0z" class="fil0"></path>
  <path d="M855.949 453.536c10.5079,8.8845 15.7897,22.1257 15.7897,39.7818 0,17.7119 -4.63447,31.4058 -13.9034,41.1385 -9.26894,9.734 -19.778,15.4487 -31.5794,17.2593l37.8844 98.1238c1.72382,3.56546 3.6101,5.99865 5.71217,7.30081 2.10083,1.30093 4.41868,1.98053 6.95109,1.98053l7.54512 0 0 7.97794 -35.3507 0 -41.6569 -114.081 -29.0458 0 0 95.5207c0,3.50841 1.02437,6.16731 3.12644,7.92213 2.10083,1.81063 4.84902,2.66014 8.24457,2.66014l7.54388 0 0 7.97794 -58.0915 0 0 -7.97794 7.59845 0c4.2029,0 7.16812,-0.849509 8.83737,-2.66014 1.67173,-1.75482 2.53364,-4.41372 2.53364,-7.92213l0 -189.683c0,-3.50841 -0.86191,-6.16731 -2.53364,-7.97918 -1.66925,-1.75358 -4.63447,-2.60309 -8.83737,-2.60309l-7.59845 0 0 -7.97794 71.9962 0c19.3452,0 34.3263,4.41372 44.8342,13.2412zm-77.6538 5.31904l0 86.2406 27.7523 0c12.6645,0 23.1724,-4.01811 31.5794,-11.9402 8.40703,-7.97918 12.6633,-20.3721 12.6633,-37.1787 0,-14.996 -3.82465,-26.7093 -11.3698,-35.1411 -7.59721,-8.37479 -19.3998,-12.5628 -35.404,-12.5628l-13.8501 0c-3.39555,0 -6.14374,0.849509 -8.24457,2.60309 -2.10207,1.81187 -3.12644,4.47077 -3.12644,7.97918z" class="fil0" id="1"></path>
  <path d="M1035.45 659.121l0 7.97794 -65.69 0 0 -7.97794 11.371 0c4.2029,0 7.16688,-0.849509 8.83737,-2.66014 1.67049,-1.75482 2.5324,-4.41372 2.5324,-7.92213l0 -185.722c0,-7.07262 -0.430335,-11.0349 -1.29349,-11.9402 -0.807343,-0.848268 -4.2029,-1.30093 -10.0763,-1.30093 -11.8026,0 -19.9926,2.20624 -24.6271,6.62121 -4.63447,4.41372 -10.3466,16.354 -17.0832,35.8195l-7.54388 -1.30093 11.371 -50.4199 119.954 0 10.1321 50.4199 -6.35953 1.30093c-6.7353,-18.5602 -11.9626,-30.2747 -15.7885,-35.1411 -3.77256,-4.86638 -11.5322,-7.29957 -23.3348,-7.29957 -8.40579,0 -13.0403,0.452658 -13.9022,1.30093 -0.86191,0.905316 -1.24016,5.32028 -1.24016,13.2982l0 184.364c0,3.50841 1.02437,6.16731 3.12644,7.92213 2.10083,1.81063 4.84902,2.66014 8.24457,2.66014l11.3698 0z" class="fil0" id="12"></path>
  <path d="M1228.16 448.273l-3.77256 0 0 -7.97794 45.4816 0 0 7.97794 -5.06605 0c-3.39555,0 -6.51951,1.30217 -9.48473,3.96107 -2.96274,2.66014 -5.27935,7.52652 -6.95109,14.6004l-51.7865 200.265 -7.54388 0 -46.7763 -200.265c-0.807343,-6.22436 -2.31662,-10.865 -4.41744,-13.9208 -2.10207,-3.1128 -5.22851,-4.64067 -9.43141,-4.64067l-6.35829 0 0 -7.97794 54.3189 0 0 7.97794 -5.06481 0c-4.20414,0 -6.95233,1.30217 -8.19125,3.96107 -1.24016,2.66014 -1.45471,6.16855 -0.647363,10.5823l35.4053 155.221 2.47908 0 37.9364 -151.203c1.67173,-6.22436 1.67173,-10.865 0,-13.9208 -1.72382,-3.1128 -5.06481,-4.64067 -10.1296,-4.64067z" class="fil0" id="123"></path>
  <path d="M1370.37 448.273l-29.0458 0 0 -7.97794 101.041 0 0 7.97794 -29.0445 0c-3.34223,0 -6.09042,0.849509 -8.19249,2.60309 -2.10207,1.81187 -3.17853,4.47077 -3.17853,7.97918l0 189.683c0,3.50841 1.07646,6.16731 3.17853,7.92213 2.10207,1.81063 4.85026,2.66014 8.19249,2.66014l29.0445 0 0 7.97794 -101.041 0 0 -7.97794 29.0458 0c4.20414,0 7.16812,-0.849509 8.83737,-2.66014 1.67173,-1.75482 2.53364,-4.41372 2.53364,-7.92213l0 -189.683c0,-3.50841 -0.86191,-6.16731 -2.53364,-7.97918 -1.66925,-1.75358 -4.63323,-2.60309 -8.83737,-2.60309z" class="fil0" id="1234"></path>
  <path d="M1618.04 582.896c-7.97546,-8.4306 -20.4242,-16.5797 -37.237,-24.5589 -22.7408,-10.6381 -38.3147,-19.9194 -46.7205,-27.8416 -8.46036,-7.97794 -12.6645,-20.3708 -12.6645,-37.1775 0,-13.2424 5.28183,-25.861 15.7897,-37.7442 10.5624,-11.9402 25.489,-17.9389 44.8342,-17.9389 8.4616,0 16.4371,1.52788 24.0355,4.64067 7.54388,3.11156 13.0415,4.63943 16.3825,4.63943 2.5324,0 4.84902,-0.678367 6.95109,-1.98053 2.10083,-1.30093 3.98711,-3.73412 5.71217,-7.29957l5.01148 54.3809 -6.30497 2.66014c-7.54512,-18.5615 -15.3581,-31.1801 -23.3336,-37.8013 -8.03003,-6.62121 -18.3221,-9.95971 -30.9854,-9.95971 -15.9522,0 -26.9449,4.64067 -32.8196,13.9208 -5.87215,9.28011 -8.83737,19.2398 -8.83737,29.8791 0,9.67572 2.74819,17.4292 8.19249,23.2009 5.49514,5.71465 20.4229,14.3734 44.8342,25.861 20.2084,8.82745 34.7579,18.7872 43.5953,29.8209 8.83737,11.0349 13.2573,24.1074 13.2573,39.1592 0,15.9013 -5.28183,30.0478 -15.7897,42.4407 -10.5079,12.3371 -25.866,18.5615 -46.0744,18.5615 -8.46036,0 -16.2213,-1.58492 -23.3869,-4.64067 -7.16812,-3.11156 -12.8257,-4.63943 -17.0299,-4.63943 -2.5324,0 -5.06481,0.848268 -7.59845,2.60309 -2.5324,1.81063 -5.49638,4.01687 -8.83737,6.67701l-10.1309 -65.0203 7.59845 -2.6589c5.87339,22.1257 14.118,37.4044 24.6271,45.7792 10.5079,8.37479 22.525,12.6199 35.9981,12.6199 14.3338,0 25.0574,-4.47077 32.2243,-13.2982 7.11355,-8.82869 10.7237,-21.673 10.7237,-38.4238 0,-8.8845 -3.98711,-17.485 -12.0171,-25.861z" class="fil0" id="12345"></path>
  <path d="M1811.44 659.121l0 7.97794 -65.69 0 0 -7.97794 11.371 0c4.2029,0 7.16688,-0.849509 8.83737,-2.66014 1.67049,-1.75482 2.5324,-4.41372 2.5324,-7.92213l0 -185.722c0,-7.07262 -0.430335,-11.0349 -1.29349,-11.9402 -0.807343,-0.848268 -4.2029,-1.30093 -10.0763,-1.30093 -11.8026,0 -19.9926,2.20624 -24.6271,6.62121 -4.63447,4.41372 -10.3466,16.354 -17.0832,35.8195l-7.54388 -1.30093 11.371 -50.4199 119.954 0 10.1321 50.4199 -6.35953 1.30093c-6.7353,-18.5602 -11.9626,-30.2747 -15.7885,-35.1411 -3.77256,-4.86638 -11.5322,-7.29957 -23.3348,-7.29957 -8.40579,0 -13.0403,0.452658 -13.9022,1.30093 -0.86191,0.905316 -1.24016,5.32028 -1.24016,13.2982l0 184.364c0,3.50841 1.02437,6.16731 3.12644,7.92213 2.10083,1.81063 4.84902,2.66014 8.24457,2.66014l11.3698 0z" class="fil0" id="123456"></path>
  <path d="M2007.92 640.559l-12.6087 -58.342 -56.8538 0 -11.371 50.3628c-1.66925,7.97918 -1.66925,14.3734 0,19.2398 1.7263,4.86638 5.49762,7.30081 11.371,7.30081l3.82589 0 0 7.97794 -46.7751 0 0 -7.97794 3.82589 0c3.34099,0 6.30621,-1.07522 8.83737,-3.2827 2.53364,-2.20748 4.20538,-5.99865 5.06729,-11.3177l49.2529 -202.925 18.9149 -6.62121 48.0152 209.546c1.67049,5.31904 3.77132,9.1102 6.30497,11.3177 2.5324,2.20748 5.49638,3.2827 8.83737,3.2827l3.77256 0 0 7.97794 -54.2656 0 0 -7.97794 5.01148 0c5.06605,0 8.24457,-1.52788 9.48473,-4.64067 1.29349,-3.1128 1.0777,-7.75223 -0.647363,-13.9208zm-13.8488 -66.3212l-25.2744 -110.064 -1.29225 0 -26.5133 110.064 53.08 0z" class="fil0" id="1234567"></path>
  <g id="_223010272">
   <path d="M205.323 669.044l0 0zm171.955 -214.106l-0.337323 2.04006 -0.337323 2.04006 -0.346004 2.37738 -0.336083 2.04006 -0.337323 2.72339 -1.36665 0.337323 -5.09085 0 -0.683327 -0.337323 0.337323 -0.683327 0.346004 -0.337323 0.337323 -0.683327 0.336083 -0.336083 0.346004 -0.346004 0.337323 -0.674646 0.337323 -0.683327 0.346004 -0.336083 0.337323 -0.683327 0.336083 -0.674646 0.347244 -0.346004 0.336083 -0.673406 0.337323 -0.346004 0.337323 -0.674646 0.346004 -0.346004 0.336083 -0.673406 0.337323 -0.346004 0.346004 -0.337323 0.337323 -0.337323 0.337323 -0.683327 0.346004 -0.336083 0.337323 -0.683327 0.336083 -0.673406 0.346004 -0.347244 0.337323 -0.673406 0.337323 -0.346004 0.346004 -0.337323 0 0.683327 -0.346004 1.69406zm-133.556 -218.861l-0.337323 0.347244 -0.346004 0.336083 -0.337323 0.337323 -0.337323 0.337323 -0.682087 0.346004 -0.337323 0.336083 -0.346004 1.02065 -0.337323 0.337323 -0.337323 0.346004 -0.336083 0.673406 -0.347244 0.346004 -0.336083 0.674646 -0.337323 0.346004 -0.346004 0.337323 -0.337323 0.336083 -0.336083 0.683327 -0.347244 0.337323 -0.336083 0.683327 -0.337323 0.336083 -0.346004 0.683327 -0.337323 0.674646 -0.337323 0.682087 -0.346004 0.337323 -0.336083 0.683327 -0.337323 0.337323 -0.346004 0.683327 -0.337323 0.673406 -0.337323 0.346004 -0.336083 0.337323 -0.346004 1.01941 -0.337323 0.337323 -0.337323 0.346004 -0.346004 0.674646 -0.337323 1.01941 -0.336083 0.346004 -0.347244 0.674646 -0.336083 0.336083 -0.683327 0.683327 -0.337323 0.683327 -0.336083 0.337323 -0.347244 0.683327 -0.336083 0.673406 -0.337323 0.346004 -0.337323 0.673406 -0.346004 0.683327 -0.337323 0.337323 -0.336083 0.683327 -0.346004 0.673406 -0.337323 0.683327 -0.337323 0.337323 -0.346004 0.346004 -0.337323 0.337323 -0.336083 0.336083 -0.347244 0.683327 -0.673406 0.683327 -0.346004 0.337323 -0.337323 0.683327 -0.336083 1.01073 -0.337323 0.346004 -0.346004 0.336083 -0.337323 0.683327 -0.337323 0.337323 -0.346004 0.337323 -0.337323 0.346004 -0.336083 0.673406 -0.346004 0.683327 -0.337323 0.337323 -0.337323 0.683327 -0.346004 0.673406 -0.337323 0.683327 -0.336083 1.01941 -0.347244 0.683327 -0.336083 0.674646 -0.337323 0.683327 -0.346004 0.336083 -0.337323 0.683327 -0.336083 1.02065 -0.337323 0.336083 -0.346004 0.683327 -0.337323 1.02065 -0.337323 0.673406 -0.346004 0.346004 -0.336083 1.02065 -0.337323 0.673406 -0.346004 1.02065 -0.337323 1.01941 -0.337323 1.02065 -0.346004 0.683327 -0.337323 0.673406 -0.336083 0.683327 -0.346004 0.683327 -0.337323 0.673406 -0.337323 0.683327 -0.336083 1.01941 -0.347244 1.02065 -0.336083 0.337323 -0.337323 1.35673 -0.346004 1.01941 -0.337323 0.683327 -0.336083 0.674646 -0.347244 0.683327 -0.336083 0.682087 -0.337323 1.02065 -0.346004 0.337323 -0.337323 1.01941 -0.337323 0.683327 -0.346004 0.673406 -0.336083 0.337323 -0.337323 1.02065 -0.337323 1.01941 -0.346004 1.36665 -0.337323 0.673406 -0.336083 1.02065 -0.347244 0.336083 -0.336083 1.02065 -0.337323 0.683327 -0.346004 1.01941 -0.337323 0.683327 -0.336083 1.02065 -0.347244 0.673406 -0.336083 1.02065 -0.337323 0.683327 -0.346004 0.673406 -0.337323 1.36665 -0.337323 0.673406 -0.346004 1.02065 -0.336083 1.01941 -0.337323 0.337323 -0.337323 1.01941 -0.346004 0.347244 -0.337323 1.01941 -0.336083 0.673406 -0.347244 1.02065 -0.336083 0.346004 -0.337323 1.01073 -0.346004 0.683327 -0.337323 1.70274 -0.336083 0.674646 -0.347244 0.346004 -0.336083 0.337323 -0.337323 1.35673 -0.346004 0.683327 -0.337323 1.01941 -0.337323 0.337323 -0.336083 0.683327 -0.346004 0.673406 -0.337323 1.02065 -0.337323 0.683327 -0.346004 0.683327 -0.337323 1.35673 -0.336083 1.01941 -0.346004 0.674646 -0.337323 1.01941 -0.337323 0.683327 -0.683327 1.02065 -0.336083 1.35673 -0.347244 0.336083 -0.336083 1.02065 -0.337323 0.683327 -0.337323 1.01941 -0.346004 0.683327 -0.336083 0.674646 -0.337323 1.01941 -0.346004 1.02065 -0.337323 0.683327 -0.337323 0.673406 -0.346004 0.683327 -0.337323 1.01941 -0.336083 0.683327 -0.346004 0.337323 -0.337323 1.01941 -0.337323 0.674646 -0.346004 0.683327 -0.337323 1.01941 -0.336083 1.02065 -0.683327 1.35673 -0.337323 1.35673 -0.336083 0.346004 -0.347244 1.02065 -0.336083 0.673406 -0.337323 1.02065 -0.346004 0.346004 -0.337323 1.02065 -0.337323 0.673406 -0.346004 0.683327 -0.336083 0.673406 -0.337323 0.683327 -0.346004 1.02065 -0.337323 1.35673 -0.337323 0.683327 -0.346004 0.673406 -0.337323 1.02065 -0.336083 0.346004 -0.337323 0.673406 -0.346004 0.683327 -0.337323 1.01941 -0.336083 0.683327 -0.347244 1.01073 -0.336083 0.683327 -0.337323 1.02065 -0.346004 1.35673 -0.337323 0.346004 -0.337323 1.35673 -0.346004 0.337323 -0.336083 1.02065 -0.337323 0.682087 -0.346004 0.674646 -0.337323 1.01941 -0.337323 0.683327 -0.336083 0.337323 -0.347244 1.01941 -0.336083 0.683327 -0.337323 0.674646 -0.346004 1.70274 -0.337323 0.683327 -0.336083 0.337323 -0.347244 1.01941 -0.336083 0.683327 -0.337323 1.01073 -0.346004 0.683327 -0.337323 0.683327 -0.336083 1.01941 -0.347244 0.337323 -0.336083 1.02065 -0.337323 0.683327 -0.346004 0.673406 -0.337323 1.01941 -0.337323 1.02065 -0.336083 1.01941 -0.346004 0.337323 -0.337323 1.02065 -0.337323 0.683327 -0.346004 0.682087 -0.337323 0.674646 -0.336083 0.683327 -0.347244 1.01941 -0.336083 0.674646 -0.337323 0.682087 -0.346004 0.337323 -0.337323 1.36665 -0.336083 1.35673 -0.347244 0.337323 -0.336083 0.683327 -0.337323 1.01941 -0.337323 0.337323 -0.346004 1.35673 -0.336083 0.683327 -0.337323 1.01941 -0.346004 0.337323 -0.337323 0.683327 -0.337323 0.673406 -0.346004 1.02065 -0.337323 0.683327 -0.336083 1.35673 -0.346004 1.02065 -0.337323 0.682087 -0.337323 1.02065 -0.346004 0.673406 -0.337323 0.683327 -0.336083 0.683327 -0.347244 0.673406 -0.336083 1.02065 -0.337323 0.683327 -0.337323 1.01941 -0.346004 0.674646 -0.336083 0.683327 -0.337323 1.01941 -0.346004 1.02065 -0.337323 0.682087 -0.337323 1.01073 -0.346004 0.683327 -0.337323 1.02065 -0.336083 0.683327 -0.346004 1.01941 -0.337323 0.674646 -0.337323 0.683327 -0.346004 1.01941 -0.337323 1.02065 -0.336083 0.673406 -0.337323 1.70274 -0.346004 0.337323 -0.337323 0.683327 -0.337323 1.02065 -0.346004 0.673406 -0.336083 0.683327 -0.337323 1.01941 -0.346004 0.337323 -0.337323 1.36665 -0.337323 0.673406 -0.346004 0.683327 -0.336083 0.673406 -0.337323 1.02065 -0.346004 1.01941 -0.337323 1.02065 -0.337323 0.683327 -0.336083 1.01941 -0.347244 0.337323 -0.336083 1.02065 -0.337323 0.682087 -0.346004 1.02065 -0.337323 0.673406 -0.336083 1.02065 -0.347244 0.683327 -0.336083 1.01941 -0.337323 0.674646 -0.346004 1.01941 -0.337323 1.02065 -0.337323 1.01941 -0.346004 1.02065 -0.336083 1.01941 -0.337323 0.683327 -0.346004 1.02065 -0.337323 0.673406 -0.337323 0.683327 -0.336083 0.683327 -0.347244 1.01941 -0.336083 0.674646 -0.337323 0.683327 -0.346004 1.01941 -0.337323 1.35673 -0.336083 0.683327 -0.347244 1.02065 -0.336083 0.336083 -0.337323 0.683327 -0.346004 1.01073 -0.337323 1.02065 -0.336083 0.346004 -0.347244 1.02065 -0.336083 0.673406 -0.337323 0.683327 -0.337323 1.01941 -0.346004 0.674646 -0.337323 1.70274 -0.336083 0.683327 -0.346004 0.673406 -0.337323 1.02065 -0.337323 0.683327 -0.346004 0.673406 -0.337323 1.02065 -0.336083 0.346004 -0.347244 1.01941 -0.336083 0.674646 -0.337323 1.36541 -0.346004 0.337323 -0.337323 1.35673 -0.336083 1.02065 -0.337323 0.683327 -0.346004 1.01941 -0.337323 0.674646 -0.337323 0.683327 -0.346004 1.01941 -0.336083 1.02065 -0.337323 0.673406 -0.346004 0.683327 -0.337323 0.683327 -0.337323 0.336083 -0.346004 1.02065 -0.337323 0.683327 -0.336083 1.69406 -0.346004 0.683327 -0.337323 1.01941 -0.337323 0.673406 -0.346004 0.683327 -0.337323 0.683327 -0.336083 1.02065 -0.337323 0.673406 -0.346004 1.02065 -0.337323 0.683327 -0.337323 1.35673 -0.346004 0.336083 -0.336083 1.02065 -0.337323 1.35673 -0.346004 0.683327 -0.337323 1.02065 -0.337323 1.01941 -0.346004 0.337323 -0.337323 1.01941 -0.336083 0.683327 -0.346004 0.674646 -0.337323 1.01941 -0.337323 1.02065 -0.336083 0.346004 -0.347244 1.01941 -0.336083 1.02065 -0.337323 1.02065 -0.346004 1.01073 -0.337323 0.682087 -0.337323 0.683327 -0.346004 1.02065 -0.336083 1.01941 -0.337323 0.674646 -0.346004 0.683327 -0.337323 0.673406 -0.337323 0.683327 -0.346004 1.01941 -0.336083 0.337323 -0.337323 1.36665 -0.337323 0.673406 -0.346004 1.35673 -0.337323 1.36665 -0.336083 0.673406 -0.347244 0.683327 -0.336083 0.337323 -0.337323 1.01941 -0.346004 1.02065 -0.337323 0.683327 -0.683327 1.35673 -0.336083 1.02065 -0.337323 1.01941 -0.346004 1.02065 -0.337323 1.35673 -0.337323 0.683327 -0.346004 0.337323 -0.336083 1.35673 -0.337323 0.683327 -0.337323 1.01941 -0.346004 0.337323 -0.337323 0.683327 -0.336083 0.673406 -0.346004 1.36665 -0.337323 0.673406 -0.337323 1.02065 -0.346004 0.683327 -0.337323 1.35673 -0.336083 1.01941 -0.347244 0.683327 -0.336083 0.673406 -0.337323 0.683327 -0.346004 0.683327 -0.337323 1.02065 -0.336083 0.673406 -0.337323 1.35673 -0.346004 0.347244 -0.337323 0.673406 -0.337323 1.01941 -0.346004 0.683327 -0.337323 1.70398 -0.336083 0.673406 -0.346004 0.683327 -0.337323 1.01941 -0.337323 1.02065 -0.346004 0.673406 -0.337323 0.347244 -0.336083 0.673406 -0.347244 1.01941 -0.336083 1.02065 -0.337323 0.337323 -0.337323 1.01941 -0.346004 1.02065 -0.336083 1.01941 -0.337323 1.02065 -0.346004 0.683327 -0.337323 0.673406 -0.337323 0.683327 -0.346004 0.683327 -0.337323 1.01941 -0.336083 0.674646 -0.346004 0.683327 -0.337323 0.682087 -0.337323 1.01073 -0.346004 0.683327 -0.337323 0.683327 -0.336083 1.02065 -0.347244 1.69406 -0.336083 0.346004 -0.337323 0.673406 -0.337323 0.683327 -0.346004 1.02065 -0.336083 1.01941 -0.337323 0.673406 -0.346004 0.683327 -0.337323 0.683327 -0.337323 0.674646 -0.346004 1.01941 -0.336083 0.683327 -0.337323 0.673406 -0.346004 1.36665 -0.337323 1.02065 -0.337323 0.673406 -0.346004 1.02065 -0.337323 0.682087 -0.336083 0.674646 -0.337323 0.683327 -0.346004 0.683327 -0.337323 1.01941 -0.336083 0.673406 -0.347244 1.02065 -0.336083 0.346004 -0.337323 1.01073 -0.346004 1.36665 -0.337323 0.673406 -0.336083 1.02065 -0.347244 0.346004 -0.336083 1.02065 -0.337323 0.673406 -0.346004 0.683327 -0.337323 1.01941 -0.337323 0.674646 -0.336083 0.346004 -0.346004 0.673406 -0.337323 1.02065 -0.337323 0.683327 -0.346004 1.69282 -0.337323 1.02065 -0.336083 0.346004 -0.347244 0.674646 -0.336083 1.01941 -0.337323 0.683327 -0.346004 0.683327 -0.337323 0.673406 -0.336083 1.02065 -0.347244 0.683327 -0.336083 1.01941 -0.337323 0.337323 -0.346004 1.01941 -0.337323 1.35797 -0.337323 0.683327 -0.336083 1.01941 -0.346004 0.337323 -0.337323 0.683327 -0.337323 0.673406 -0.346004 0.683327 -0.337323 0.336083 -0.336083 0.683327 -0.347244 0.674646 -0.336083 0.683327 -0.683327 1.01941 -0.337323 1.35673 -0.336083 0.347244 -0.347244 0.336083 -0.336083 0.337323 -0.337323 1.01941 -0.337323 0.347244 -0.683327 0.673406 -0.336083 0.683327 -0.346004 0.336083 -0.337323 0.337323 -0.337323 0.346004 -0.346004 0.337323 -0.337323 0.337323 -0.336083 0.683327 -0.346004 0.336083 -0.674646 0.346004 -0.346004 0.337323 -1.01073 0.337323 -0.683327 0.346004 -0.683327 0.337323 -0.336083 0.336083 -0.337323 0.337323 -1.02065 0.346004 -0.683327 0.337323 -1.01941 0.337323 -0.683327 0.346004 -0.673406 0.336083 -1.70398 0.337323 -1.01941 0.346004 -1.69406 0.337323 -2.37738 0.337323 -1.36665 0.346004 -0.673406 0.337323 0 17.6685 1.02065 0.346004 5.77418 0.337323 1.01941 0 74.4293 -0.337323 1.01941 -0.346004 0.337323 -0.337323 0.337323 -0.336083 0.346004 -1.02065 0.337323 -5.10077 0 -10.8737 -0.337323 -3.74404 -0.346004 -0.673406 -0.337323 -0.683327 -0.337323 -0.337323 -0.346004 -0.683327 -0.336083 -0.336083 -0.337323 -1.02065 -0.346004 -0.683327 -0.337323 -1.35673 -0.337323 -1.02065 -0.346004 -1.35673 -0.0558071 -2.38606 0.401811 -1.35673 0.337323 -1.35797 0.337323 -1.35673 0.346004 -0.683327 0.337323 -1.01941 0.336083 -1.02065 0.346004 -1.69406 0.337323 -0.336083 0.337323 -1.36665 0.346004 -0.673406 0.337323 -1.36665 0.336083 -1.01073 0.337323 -1.02065 0.346004 -1.36541 0.337323 -1.35797 0.336083 -0.683327 0.347244 -1.01941 0.336083 -0.673406 0.337323 -1.02065 0.346004 -0.683327 0.337323 -1.01941 0.337323 -0.337323 0.346004 -1.35673 0.336083 -0.683327 0.337323 -1.02065 0.346004 -1.01941 0.337323 -1.02065 0.337323 -1.01941 0.336083 -1.02065 0.347244 -0.336083 0.336083 -1.02065 0.337323 -0.673406 0.346004 -1.36665 0.337323 -0.337323 0.336083 -0.683327 0.347244 -1.01941 0.336083 -0.674646 0.337323 -0.682087 0.346004 -1.02065 0.337323 -1.35673 0.336083 -1.02065 0.347244 -0.336083 0.336083 -1.02065 0.337323 -0.683327 0.337323 -1.01941 0.346004 -0.674646 0.337323 -1.01941 0.336083 -0.347244 0.346004 -1.01941 0.337323 -0.673406 0.337323 -1.02065 0.346004 -0.683327 0.337323 -1.69406 0.336083 -0.683327 0.347244 -1.01941 0.336083 -0.683327 0.337323 -1.02065 0.346004 -0.336083 0.337323 -1.02065 0.336083 -0.336083 0.347244 -1.02065 0.336083 -1.01941 0.337323 -1.02065 0.337323 -0.337323 0.346004 -1.01941 0.337323 -1.02065 0.336083 -1.35673 0.346004 -0.683327 0.674646 -1.01941 0.346004 -1.35797 0.337323 -0.683327 0.336083 -1.01941 0.346004 -0.337323 0.337323 -1.01941 0.337323 -1.02065 0.346004 -0.683327 0.337323 -0.673406 0.336083 -1.02065 0.337323 -1.35673 0.346004 -1.01941 0.337323 -0.683327 0.337323 -0.683327 0.346004 -1.02065 0.336083 -0.673406 0.337323 -1.02065 0.346004 -0.682087 0.337323 -1.02065 0.337323 -0.673406 0.346004 -1.02065 0.337323 -0.683327 0.336083 -0.673406 0.346004 -2.04006 0.337323 -0.683327 0.337323 -1.02065 0.336083 -0.682087 0.347244 -1.02065 0.336083 -0.673406 0.337323 -0.683327 0.346004 -0.674646 0.337323 -1.01941 0.337323 -0.683327 0.346004 -0.683327 0.336083 -1.35673 0.337323 -0.673406 0.346004 -1.36665 0.337323 -0.673406 0.337323 -1.02065 0.346004 -0.683327 0.337323 -0.683327 0.336083 -0.673406 0.346004 -1.02065 0.337323 -1.01941 0.337323 -1.02065 0.336083 -0.336083 0.347244 -1.02065 0.336083 -0.683327 0.337323 -1.01941 0.346004 -1.35797 0.337323 -1.01941 0.336083 -0.683327 0.347244 -0.673406 0.336083 -1.02065 0.337323 -1.01941 0.346004 -0.337323 0.337323 -1.02065 0.337323 -0.683327 0.346004 -1.01941 0.336083 -0.683327 0.337323 -1.01941 0.337323 -0.674646 0.346004 -1.70274 0.337323 -1.02065 0.336083 -0.673406 0.347244 -0.683327 0.336083 -1.02065 0.337323 -1.01941 0.346004 -1.02065 0.337323 -0.673406 0.336083 -0.683327 0.347244 -0.683327 0.336083 -1.01941 0.337323 -0.674646 0.346004 -1.01941 0.337323 -1.02065 0.336083 -1.35673 0.347244 -0.683327 0.336083 -0.683327 0.337323 -0.673406 0.337323 -1.02065 0.346004 -0.682087 0.337323 -1.02065 0.336083 -0.673406 0.346004 -1.02065 0.337323 -0.683327 0.337323 -0.683327 0.346004 -0.673406 0.337323 -1.35673 0.336083 -1.36665 0.347244 -1.01941 0.336083 -0.674646 0.337323 -1.01941 0.346004 -0.347244 0.337323 -1.35673 0.336083 -0.673406 0.337323 -0.683327 0.346004 -0.683327 0.337323 -1.01941 0.337323 -1.02065 0.346004 -1.02065 0.337323 -0.673406 0.336083 -1.70274 0.346004 -0.674646 0.337323 -1.01941 0.337323 -0.346004 0.346004 -1.35797 0.337323 -0.336083 0.336083 -1.35673 0.347244 -0.683327 0.336083 -0.683327 0.337323 -0.674646 0.337323 -1.01941 0.346004 -0.683327 0.336083 -0.673406 0.337323 -1.70398 0.346004 -1.01941 0.337323 -0.683327 0.337323 -1.02065 0.346004 -0.673406 0.336083 -1.02065 0.337323 -0.682087 0.346004 -1.02065 0.337323 -0.673406 0.337323 -1.02065 0.346004 -1.01941 0.337323 -0.347244 0.336083 -1.01073 0.346004 -1.70274 0.337323 -0.683327 0.337323 -1.01941 0.336083 -0.674646 0.347244 -1.35673 0.336083 -0.346004 0.337323 -1.35673 0.346004 -0.683327 0.337323 -0.674646 0.337323 -0.683327 0.346004 -0.682087 0.336083 -1.35797 0.337323 -0.673406 0.346004 -1.70274 0.337323 -1.02065 0.337323 -0.683327 0.346004 -1.01941 0.336083 -0.337323 0.337323 -1.02065 0.337323 -1.01941 0.346004 -1.02065 0.337323 -0.673406 0.336083 -0.683327 0.347244 -0.683327 0.336083 -0.673406 0.337323 -1.02065 0.346004 -1.01941 0.337323 -1.35673 0.336083 -1.36665 0.347244 -0.673406 0.336083 -1.02065 0.337323 -1.02065 0.346004 -0.336083 0.337323 -1.02065 0.337323 -0.683327 0.336083 -1.35673 0.346004 -1.01941 0.337323 -0.683327 0.337323 -0.337323 0.346004 -1.70274 0.337323 -1.69406 0.336083 -0.347244 0.347244 -0.673406 0.336083 -1.01941 0.337323 -1.35797 0.346004 -0.346004 0.337323 -0.673406 0.336083 -0.683327 0.347244 -0.683327 0.336083 -1.35673 0.337323 -0.673406 0.346004 -1.36665 0.337323 -0.673406 0.337323 -1.70398 0.336083 -1.01941 0.346004 -1.02065 0.337323 -0.337323 0.337323 -0.683327 0.346004 -1.35673 0.337323 -1.01941 0.336083 -0.683327 0.347244 -0.674646 0.336083 -0.682087 0.337323 -1.02065 0.346004 -0.673406 0.337323 -1.02065 0.336083 -1.36665 0.347244 -0.673406 0.336083 -1.35673 0.337323 -1.02065 0.337323 -0.683327 0.346004 -0.336083 0.336083 -1.02065 0.337323 -1.36665 0.346004 -0.673406 0.337323 -1.01941 0.337323 -0.337323 0.346004 -1.36665 0.337323 -0.673406 0.336083 -1.70398 0.346004 -0.673406 0.337323 -0.683327 0.337323 -1.01941 0.346004 -1.02065 0.337323 -0.683327 0.336083 -1.01941 0.337323 -0.337323 0.346004 -1.35673 0.337323 -0.683327 0.336083 -1.35673 0.347244 -0.337323 0.336083 -1.02065 0.337323 -1.70274 0.346004 -1.02065 0.337323 -0.673406 0.337323 -0.683327 0.346004 -0.683327 0.336083 -1.35673 0.337323 -0.683327 0.346004 -1.35673 0.337323 -0.337323 0.337323 -1.35673 0.346004 -0.683327 0.337323 -1.01941 0.336083 -0.683327 0.337323 -1.35673 0.346004 -1.02065 0.337323 -1.35673 0.336083 -0.683327 0.347244 -1.01941 0.336083 -0.674646 0.337323 -1.01941 0.346004 -0.683327 0.337323 -1.35673 0.337323 -0.683327 0.346004 -1.02065 0.336083 -0.673406 0.337323 -1.02065 0.346004 -1.01941 0.337323 -1.35673 0.337323 -1.02065 0.336083 -1.02065 0.347244 -0.346004 0.336083 -1.35673 0.337323 -0.673406 0.346004 -1.36665 0.337323 -0.337323 0.336083 -0.683327 0.347244 -1.01941 0.336083 -0.674646 0.337323 -1.01941 0.346004 -0.683327 0.337323 -2.04006 0.337323 -1.02065 0.346004 -0.336083 0.336083 -1.02065 0.337323 -1.01941 0.337323 -1.35797 0.346004 -0.336083 0.337323 -1.36665 0.336083 -1.02065 0.346004 -1.35673 0.337323 -0.673406 0.337323 -0.346004 0.346004 -1.69406 0.337323 -1.36665 0.336083 -0.337323 0.347244 0.683327 0.336083 0.674646 0.337323 0.346004 0.346004 1.01941 0.337323 0.674646 0.336083 0.683327 0.347244 1.01941 0.336083 0.673406 0.337323 1.02065 0.337323 1.36665 0.346004 1.01941 0.337323 1.02065 0.336083 1.01073 0.346004 1.01941 0.337323 0.683327 0.337323 0.683327 0.346004 0.673406 0.337323 1.36665 0.336083 0.337323 0.346004 1.01941 0.337323 0.674646 0.337323 0.683327 0.346004 1.01941 0.337323 1.70398 0.336083 0.336083 0.337323 1.02065 0.346004 0.673406 0.337323 1.02065 0.337323 0.346004 0.346004 1.35673 0.336083 0.683327 0.337323 0.673406 0.346004 0.683327 0.337323 1.35673 0.337323 0.337323 0.346004 1.36665 0.337323 0.673406 0.336083 1.02065 0.346004 1.01941 0.337323 0.683327 0.337323 0.674646 0.336083 0.682087 0.347244 0.683327 0.336083 1.02065 0.337323 0.673406 0.346004 1.02065 0.337323 1.01941 0.337323 0.337323 0.346004 0.683327 0.336083 2.04006 0.337323 0.683327 0.346004 0.673406 0.337323 0.683327 0.337323 1.35673 0.346004 0.337323 0.336083 1.01941 0.337323 0.683327 0.346004 0.683327 0.337323 1.02065 0.337323 0.673406 0.336083 1.02065 0.347244 0.682087 0.336083 1.35797 0.337323 1.35673 0.346004 1.01941 0.337323 0.683327 0.336083 0.674646 0.347244 0.683327 0.336083 0.682087 0.337323 1.02065 0.346004 1.02065 0.337323 0.673406 0.337323 0.683327 0.346004 0.336083 0.336083 1.02065 0.337323 1.70274 0.337323 0.674646 0.346004 1.01941 0.337323 0.346004 0.336083 1.35797 0.347244 0.336083 0.336083 1.35797 0.337323 0.682087 0.346004 0.337323 0.337323 1.02065 0.336083 0.346004 0.347244 1.35673 0.336083 0.337323 0.337323 1.01941 0.346004 1.35673 0.337323 0.683327 0.337323 1.02065 0.336083 0.683327 0.346004 0.673406 0.337323 1.02065 0.337323 0.336083 0.346004 1.02065 0.337323 0.683327 0.336083 1.01941 0.346004 0.337323 0.337323 1.02065 0.337323 0.682087 0.346004 1.35797 0.337323 1.01941 0.336083 0.683327 0.347244 0.337323 0.336083 1.01941 0.337323 1.02065 0.346004 0.673406 0.337323 0.683327 0.336083 0.683327 0.337323 0.673406 0.346004 1.02065 0.337323 0.683327 0.337323 1.35673 0.346004 1.01941 0.337323 1.02065 0.336083 0.683327 0.346004 0.673406 0.337323 1.02065 0.337323 0.683327 0.346004 0.336083 0.337323 1.02065 0.336083 0.683327 0.346004 1.01941 0.337323 0.674646 0.337323 1.01941 0.336083 0.683327 0.347244 1.35673 0.336083 1.02065 0.337323 1.01941 0.346004 0.337323 0.337323 1.02065 0.337323 0.682087 0.346004 1.02065 0.336083 0.337323 0.337323 1.01941 0.346004 0.683327 0.337323 0.673406 0.337323 1.02065 0.346004 0.683327 0.337323 1.35673 0.336083 1.02065 0.337323 1.01941 0.346004 1.02065 0.337323 0.336083 0.336083 1.02065 0.347244 0.346004 0.336083 1.35673 0.337323 0.674646 0.346004 1.01941 0.337323 0.346004 0.337323 1.02065 0.346004 0.337323 0.336083 1.01941 0.337323 0.337323 0.346004 0.346004 0.674646 0.337323 0.683327 0.336083 1.01941 0.337323 0.673406 0.346004 0.683327 0.337323 0.683327 0.337323 0.673406 0.346004 2.0413 0.336083 0 0.683327 -0.337323 0.337323 -0.337323 0.337323 -0.346004 0.346004 -0.337323 0.673406 -0.336083 0.346004 -0.347244 1.01073 -0.336083 0.347244 -0.337323 0.673406 -0.346004 0.683327 -0.337323 1.01941 -0.336083 0.683327 -0.347244 0.674646 -0.336083 0.346004 -0.337323 0.336083 -0.346004 1.02065 -0.337323 0.337323 -0.336083 0.683327 -0.337323 0.673406 -0.346004 0.683327 -0.337323 0.683327 -0.337323 0.336083 -0.346004 0.683327 -0.337323 0.673406 -0.336083 0.683327 -0.346004 1.02065 -0.337323 0.337323 -0.337323 0.682087 -0.346004 0.337323 -0.337323 0.683327 -0.336083 0.337323 -0.347244 0.683327 -0.336083 0.673406 -0.337323 0.346004 -0.346004 1.01073 -0.337323 0.683327 -0.336083 0.337323 -0.337323 0.682087 -0.346004 1.02065 -0.337323 0.337323 -0.337323 1.01941 -0.346004 0.346004 -0.673406 1.01073 -0.346004 0.683327 -0.337323 0.683327 -0.337323 0.674646 -0.346004 0.346004 -0.337323 0.673406 -0.336083 1.02065 -0.347244 0.683327 -0.336083 0.682087 -0.337323 0.674646 -0.337323 0.336083 -0.346004 0.683327 -0.336083 0.683327 -0.337323 1.02065 -0.346004 0.336083 -0.337323 0.337323 -0.337323 0.683327 -0.346004 0.683327 -0.336083 0.673406 -0.337323 0.337323 -0.346004 1.36665 -0.337323 0.336083 -0.337323 0.683327 -0.346004 0.673406 -0.337323 0.347244 -0.336083 0.673406 -0.337323 0.683327 -0.346004 0.683327 -0.337323 0.336083 -0.336083 0.674646 -0.347244 0.683327 -0.336083 0.336083 -0.337323 0.683327 -0.346004 1.35673 -0.337323 0.347244 -0.337323 0.673406 -0.346004 0.346004 -0.336083 0.673406 -0.337323 0.683327 -0.346004 0.674646 -0.337323 0.683327 -0.337323 0.682087 -0.346004 0.337323 -0.336083 0.337323 -0.337323 0.683327 -0.337323 0.683327 -0.346004 1.35673 -0.337323 0.673406 -0.336083 0.683327 -0.347244 0.337323 -0.336083 0.346004 -0.337323 0.673406 -0.346004 0.683327 -0.337323 0.683327 -0.336083 1.02065 -0.347244 0.336083 -0.336083 0.674646 -0.337323 0.346004 -0.346004 0.673406 -0.337323 0.683327 -0.337323 1.35673 -0.336083 0.683327 -0.346004 0.337323 -0.337323 0.683327 -0.337323 0.673406 -0.346004 0.683327 -0.337323 0.336083 -0.336083 0.683327 -0.347244 0.683327 -0.336083 0.674646 -0.337323 0.682087 -0.346004 0.337323 -0.337323 1.02065 -0.336083 1.01941 -0.347244 0.337323 -0.336083 0.683327 -0.337323 0.683327 -0.337323 0.336083 -0.346004 0.683327 -0.337323 0.673406 -0.336083 1.02065 -0.346004 0.346004 -0.337323 0.674646 -0.337323 0.682087 -0.346004 0.337323 -0.337323 0.683327 -0.336083 1.35673 -0.346004 0.683327 -0.337323 0.337323 -0.337323 0.683327 -0.346004 0.673406 -0.337323 0.337323 -0.336083 0.683327 -0.347244 0.682087 -0.336083 0.674646 -0.337323 0.346004 -0.337323 0.673406 -0.346004 0.683327 -0.336083 0.683327 -0.337323 0.673406 -0.346004 1.02065 -0.337323 0.337323 -0.337323 0.682087 -0.346004 0.683327 -0.673406 0.674646 -0.346004 1.01941 -0.337323 0.346004 -0.337323 0.674646 -0.346004 0.683327 -0.337323 0.673406 -0.336083 0.683327 -0.337323 0.683327 -0.346004 0.673406 -0.337323 0.346004 -0.337323 0.674646 -0.346004 1.01941 -0.336083 0.346004 -0.337323 0.674646 -0.346004 0.683327 -0.674646 0.673406 -0.346004 0.683327 -0.336083 0.683327 -0.337323 0.673406 -0.346004 1.02065 -0.337323 0.682087 -0.337323 0.674646 -0.336083 0.683327 -0.347244 0.336083 -0.336083 0.683327 -0.337323 0.337323 -0.346004 1.01941 -0.337323 0.347244 -0.336083 0.673406 -0.347244 0.683327 -0.336083 0.683327 -0.337323 0.336083 -0.346004 1.02065 -0.337323 1.01941 -0.337323 0.337323 -0.346004 0.683327 -0.336083 0.673406 -0.337323 0.347244 -0.346004 1.01941 -0.337323 0.673406 -0.337323 0.683327 -0.336083 0.337323 -0.346004 0.683327 -0.337323 0.673406 -0.337323 0.683327 -0.346004 0.337323 -0.337323 1.36541 -0.336083 0.337323 -0.347244 0.673406 -0.336083 0.347244 -0.337323 1.01941 -0.346004 0.337323 -0.337323 1.01941 -0.336083 0.337323 -0.347244 0.683327 -0.336083 0.683327 -0.337323 0.337323 -0.337323 0.336083 -0.346004 0.683327 -0.337323 1.35673 -0.336083 0.337323 -0.346004 0.683327 -0.337323 0.336083 -0.337323 0.683327 -0.346004 0.337323 -0.337323 0.683327 -0.336083 0.683327 -0.347244 0.336083 -0.336083 1.02065 -0.337323 0.673406 -0.346004 0.683327 -0.337323 0.337323 -0.336083 1.36665 -0.337323 0.336083 -0.346004 0.683327 -0.337323 0.674646 -0.337323 0.682087 -0.346004 0.337323 -0.337323 0.683327 -0.336083 0.673406 -0.346004 0.347244 -0.337323 0.673406 -0.337323 0.683327 -0.346004 0.683327 -0.337323 0.673406 -0.336083 0.683327 -0.347244 1.01941 -0.336083 0.337323 -0.337323 0.337323 -0.346004 1.01941 -0.337323 0.346004 -0.336083 0.674646 -0.337323 0.346004 -0.346004 0.673406 -0.337323 0.683327 -0.337323 0.674646 -0.346004 0.346004 -0.336083 0.673406 -0.337323 0.683327 -0.346004 0.683327 -0.337323 0.673406 -0.337323 0.683327 -0.346004 0.683327 -0.337323 0.337323 -0.336083 0.673406 -0.346004 0.683327 -0.337323 0.336083 -0.337323 0.683327 -0.336083 0.337323 -0.347244 1.02065 -0.336083 0.346004 -0.337323 1.01941 -0.683327 1.02065 -0.336083 0.673406 -0.347244 0.683327 -0.336083 1.02065 -0.337323 0.673406 -0.346004 0.683327 -0.337323 0.683327 -0.337323 0.336083 -0.346004 0.337323 -0.336083 0.346004 -0.337323 0.674646 -0.337323 0.683327 -0.346004 1.35673 -0.337323 0.683327 -0.336083 0.336083 -0.347244 0.337323 -0.336083 0.683327 -0.337323 0.683327 -0.346004 0.673406 -0.337323 0.337323 -0.336083 0.683327 -0.347244 0.682087 -0.336083 0.337323 -0.337323 0.337323 -0.346004 0.346004 -0.337323 1.02065 -0.337323 0.336083 -0.346004 0.683327 -0.336083 0.337323 -0.337323 0.336083 -0.337323 0.683327 -0.683327 0.337323 -0.336083 0.337323 -0.347244 0.346004 -0.336083 0.336083 -0.337323 0.683327 -0.346004 0.337323 -0.337323 0.683327 -0.336083 0.337323 -0.347244 0.336083 -0.673406 0.346004 -1.02065 0.674646 -0.336083 0.346004 -0.346004 0.337323 -0.674646 0.336083 -0.346004 0.337323 -0.337323 0.346004 -0.336083 0.337323 -0.683327 0.337323 -0.683327 0.346004 -0.337323 0.336083 -1.35673 0.337323 -0.337323 0.346004 -0.682087 0.337323 -1.35797 0.337323 -1.01941 0.346004 -1.36665 0.337323 -0.337323 0.336083 -1.69282 0.346004 -1.70398 0.337323 -1.35673 0.337323 -2.37738 0.336083 -2.38606 0.347244 -7.13091 0.336083 -1.36665 0.337323 -4.08012 0.0657284 -1.35797 -0.403051 -1.01073 0 -0.682087 0 -2.0413 0 -0.336083 0.683327 0 3.73412 0.336083 9.51822 0.337323 0.336083 0.346004 0.347244 28.2074 0 10.1916 -0.347244 6.45751 -0.336083 7.81424 -0.337323 5.10077 -0.346004 4.08012 -0.337323 4.75353 -0.336083 9.51822 -0.347244 6.12018 -0.336083 6.1115 -0.337323 6.45751 -0.346004 6.79359 -0.337323 7.47816 -0.337323 6.12018 -0.336083 5.10077 -0.346004 5.77418 -0.337323 7.14083 -0.337323 5.09085 -0.346004 4.76345 -0.337323 8.49757 -0.336083 4.41744 -0.347244 6.1115 -0.336083 4.4162 -0.337323 4.41744 -0.346004 3.40672 -0.337323 8.15156 -0.336083 0.337323 -0.347244 0.346004 -0.336083 0 -1.35797 -0.346004 -0.336083 -0.674646 -0.346004 -3.39679 -0.337323 -4.76345 -0.337323 -7.47816 -0.346004 -2.71347 0 -0.683327 0 -13.2511 -0.337323 -0.683327 0 -3.73412 0 -23.79 -0.336083 -2.72339 0 -0.337323 0 -43.8346 0 -10.8749 0.336083 -6.45751 0.337323 -4.76345 0.346004 -4.07144 0.337323 0.337323 -0.337323 0.337323 -0.683327 0.682087 -0.336083 0.674646 -0.346004 0.346004 -0.337323 0.337323 -0.337323 0.336083 -0.346004 0.347244 -0.337323 0.336083 -0.336083 0.337323 -0.347244 0.346004 -0.336083 0.337323 -0.337323 0.336083 -0.683327 0.347244 -0.336083 0.673406 -0.337323 0.337323 -0.346004 0.346004 -0.337323 0.336083 -0.337323 0.683327 -0.683327 0.337323 -0.682087 0.337323 -0.337323 0.346004 -0.337323 0.337323 -0.346004 0.336083 -1.01073 0.346004 -0.346004 0.674646 -0.674646 0.346004 -0.682087 0.337323 -0.337323 0.336083 -0.683327 0.337323 -0.337323 0.346004 -0.683327 0.337323 -0.336083 0.683327 -0.683327 0.336083 -0.673406 0.337323 -1.02065 0.346004 -0.346004 0.337323 -0.673406 0.683327 -0.683327 0.673406 -1.02065 0.346004 -0.683327 0.337323 -0.336083 0.337323 -0.683327 0.346004 -0.674646 0.337323 -0.336083 0.336083 -0.683327 0.337323 -0.683327 0.346004 -0.337323 0.337323 -0.683327 0.336083 -0.673406 0.347244 -0.346004 0.336083 -0.673406 0.337323 -0.683327 0.346004 -0.337323 0.337323 -0.683327 0.337323 -0.337323 0.346004 -0.336083 0.336083 -0.683327 0.337323 -0.337323 0.346004 -0.683327 0.337323 -1.01941 0.337323 -0.683327 0.336083 -0.337323 0.347244 -0.336083 0.336083 -0.337323 0.337323 -0.683327 0.346004 -0.683327 0.337323 -0.337323 0.336083 -0.682087 0.347244 -0.337323 0.336083 -0.683327 0.337323 -0.337323 0.346004 -0.683327 0.337323 -0.673406 0.337323 -0.683327 0.346004 -0.336083 0.336083 -0.683327 0.337323 -0.337323 0.337323 -0.683327 0.346004 -0.336083 0.337323 -0.683327 0.336083 -0.337323 0.346004 -0.337323 0.337323 -0.683327 0.337323 -0.336083 0.346004 -0.683327 0.337323 -1.02065 0.336083 -0.336083 0.347244 -0.683327 0.336083 -0.337323 0.337323 -0.337323 0.346004 -0.682087 0.337323 -0.337323 0.336083 -0.683327 0.347244 -0.683327 0.336083 -0.336083 0.337323 -0.337323 0.337323 -0.683327 0.346004 -0.337323 0.337323 -0.683327 0.336083 -0.673406 0.346004 -0.683327 0.337323 -0.683327 0.337323 -0.336083 0.346004 -0.337323 0.337323 -0.683327 0.336083 -0.337323 0.346004 -0.346004 0.337323 -0.673406 0.337323 -0.683327 0.346004 -0.673406 0.337323 -0.347244 0.336083 -0.673406 0.337323 -0.683327 0.346004 -0.683327 0.337323 -0.336083 0.337323 -0.337323 0.346004 -0.683327 0.336083 -0.673406 0.337323 -0.346004 0.346004 -0.674646 0.337323 -0.683327 0.337323 -0.336083 0.346004 -0.347244 0.337323 -0.673406 0.336083 -0.683327 0.346004 -1.01941 0.337323 -0.337323 0.337323 -0.683327 0.336083 -0.336083 0.347244 -0.337323 0.336083 -0.683327 0.337323 -0.337323 0.346004 -0.683327 0.337323 -0.336083 0.337323 -0.683327 0.346004 -0.683327 0.336083 -0.337323 0.337323 -0.336083 0.346004 -1.02065 0.337323 -0.337323 0.337323 -0.682087 0.346004 -0.683327 0.336083 -0.337323 0.337323 -0.337323 0.346004 -0.682087 0.337323 -0.683327 0.337323 -0.337323 0.336083 -0.337323 0.347244 -0.683327 0.336083 -0.673406 0.337323 -0.346004 0.346004 -1.02065 0.337323 -0.673406 0.336083 -0.346004 0.347244 -0.337323 0.336083 -0.683327 0.337323 -0.336083 0.346004 -0.683327 0.337323 -0.674646 0.337323 -0.336083 0.346004 -0.683327 0.336083 -0.683327 0.337323 -0.337323 0.337323 -0.683327 0.346004 -1.01941 0.337323 -0.674646 0.336083 -0.346004 0.347244 -0.673406 0.336083 -0.346004 0.337323 -0.337323 0.346004 -0.673406 0.337323 -0.346004 0.336083 -1.02065 0.347244 -0.337323 0.336083 -0.336083 0.337323 -0.683327 0.346004 -0.683327 0.337323 -0.673406 0.337323 -0.347244 0.336083 -0.336083 0.346004 -0.674646 0.337323 -0.683327 0.337323 -0.682087 0.346004 -0.337323 0.337323 -0.683327 0.336083 -0.673406 0.346004 -0.347244 0.337323 -0.336083 0.337323 -0.683327 0.346004 -0.337323 0.337323 -0.673406 0.336083 -1.02065 0.347244 -0.682087 0.336083 -0.337323 0.337323 -0.346004 0.346004 -0.337323 0.337323 -0.683327 0.336083 -0.673406 0.337323 -0.683327 0.346004 -0.683327 0.337323 -0.337323 0.337323 -0.673406 0.346004 -0.346004 0.337323 -0.674646 0.336083 -0.682087 0.346004 -0.683327 0.337323 -0.674646 0.337323 -0.346004 0.346004 -0.673406 0.337323 -0.346004 0.336083 -0.674646 0.346004 -0.336083 0.337323 -0.683327 0.337323 -0.683327 0.336083 -0.337323 0.347244 -0.683327 0.336083 -0.336083 0.337323 -1.02065 0.346004 -0.683327 0.337323 -0.673406 0.337323 -0.683327 0.346004 -0.337323 0.336083 -0.683327 0.337323 -0.673406 0.346004 -0.346004 0.337323 -0.337323 0.337323 -0.683327 0.346004 -0.673406 0.337323 -0.346004 0.336083 -0.674646 0.337323 -1.01941 0.346004 -0.683327 0.337323 -0.337323 0.336083 -0.682087 0.347244 -0.674646 0.336083 -0.346004 0.337323 -0.673406 0.346004 -0.683327 0.337323 -0.337323 0.337323 -0.683327 0.346004 -0.336083 0.336083 -0.683327 0.337323 -0.674646 0.346004 -1.01941 0.337323 -0.683327 0.337323 -0.337323 0.346004 -0.683327 0.337323 -0.336083 0.336083 -0.346004 0.337323 -0.674646 0.346004 -0.683327 0.337323 -0.673406 0.336083 -0.346004 0.347244 -0.674646 0.336083 -0.682087 0.337323 -0.337323 0.346004 -1.02065 0.337323 -0.346004 0.336083 -0.673406 0.347244 -0.683327 0.336083 -0.337323 0.337323 -0.683327 0.346004 -0.336083 0.337323 -0.683327 0.337323 -0.337323 0.336083 -0.683327 0.346004 -0.336083 0.337323 -0.683327 0.337323 -0.337323 0.346004 -1.02065 0.337323 -1.01941 0.336083 -0.337323 0.347244 -0.336083 0.336083 -0.683327 0.337323 -0.683327 0.346004 -0.673406 0.337323 -0.347244 0.336083 -0.673406 0.347244 -0.683327 0.673406 -0.337323 0.337323 -1.01941 0.346004 -0.337323 0.336083 -1.01941 0.337323 -0.683327 0.346004 -0.337323 0.674646 -0.683327 0.346004 -0.683327 0.337323 -0.336083 0.336083 -0.337323 0.346004 -0.346004 0.337323 -0.673406 0.337323 -0.337323 0.683327 0 0.336083 0.337323 0.347244 1.01941 0.336083 0.673406 0.337323 0.683327 0.337323 0.337323 0.346004 1.01941 0.336083 0.683327 0.337323 0.683327 0.346004 1.02065 0.337323 0.673406 0.337323 1.02065 0.346004 1.35673 0.337323 1.01941 0.336083 1.02065 0.346004 0.683327 0.337323 1.01941 0.337323 0.674646 0.346004 1.01941 0.337323 0.683327 0.336083 0.683327 0.337323 0.673406 0.346004 0.683327 0.337323 1.35673 0.337323 0.337323 0.346004 1.02065 0.336083 1.70274 0.337323 0.337323 0.346004 1.01941 0.337323 1.02065 0.337323 0.337323 0.346004 0.682087 0.337323 1.02065 0.336083 1.01941 0.346004 0.337323 0.337323 1.36665 0.337323 0.337323 0.336083 1.01941 0.347244 0.673406 0.336083 1.70398 0.337323 0.683327 0.346004 0.673406 0.337323 1.02065 0.336083 1.01941 0.347244 0.683327 0.336083 1.02065 0.337323 0.336083 0.346004 1.02065 0.337323 0.683327 0.337323 1.01941 0.346004 0.674646 0.336083 1.01941 0.337323 1.35673 0.346004 0.683327 0.337323 1.35673 0.337323 0.347244 0.336083 0.673406 0.347244 1.02065 0.336083 0.682087 0.337323 1.02065 0.346004 0.337323 0.337323 1.01941 0.336083 0.683327 0.347244 1.01073 0.336083 0.346004 0.337323 1.69406 0.346004 0.683327 0.337323 0.683327 0.336083 1.01941 0.347244 1.02065 0.336083 0.337323 0.337323 1.35673 0.337323 0.683327 0.346004 0.336083 0.337323 0.683327 0.336083 1.02065 0.346004 0.673406 0.337323 1.02065 0.337323 1.35673 0.346004 0.683327 0.337323 0.683327 0.336083 1.01941 0.347244 0.674646 0.336083 0.682087 0.337323 1.02065 0.346004 1.01941 0.337323 0.337323 0.336083 1.35673 0.347244 0.683327 0.336083 0.683327 0.337323 0.337323 0.337323 1.69406 0.346004 1.01941 0.336083 1.02065 0.337323 0.683327 0.346004 0.683327 0.337323 0.673406 0.337323 1.01941 0.346004 0.683327 0.337323 1.02065 0.336083 0.337323 0.346004 1.01941 0.337323 1.02065 0.337323 0.336083 0.346004 1.35673 0.337323 1.36665 0.336083 0.674646 0.337323 1.01941 0.346004 0.683327 0.337323 0.683327 0.337323 0.673406 0.346004 1.02065 0.336083 0.683327 0.337323 1.01941 0.346004 0.673406 0.337323 0.347244 0.337323 1.01941 0.346004 0.674646 0.337323 1.35673 0.336083 1.36665 0.346004 0.336083 0.337323 1.02065 0.337323 0.336083 0.336083 1.36665 0.347244 0.674646 0.336083 1.01941 0.337323 0.337323 0.346004 0.683327 0.337323 1.01941 0.337323 0.683327 0.346004 1.02065 0.336083 1.35673 0.337323 0.673406 0.346004 1.02065 0.337323 0.346004 0.337323 1.01941 0.346004 0.674646 0.336083 0.683327 0.337323 0.683327 0.337323 1.01073 0.346004 1.01941 0.337323 0.683327 0.336083 0.683327 0.347244 0.673406 0.336083 1.36665 0.337323 1.35673 0.346004 0.673406 0.337323 0.683327 0.336083 1.02065 0.347244 1.01941 0.336083 1.02065 0.337323 0.683327 0.346004 0.673406 0.337323 1.35673 0.337323 1.02065 0.346004 0.683327 0.336083 1.01941 0.337323 3.39803 0.337323 1.35673 0.0657284 3.40672 -0.403051 1.35673 -0.337323 2.71347 -0.336083 1.02065 -0.346004 0.337323 -0.337323 1.01941 -0.337323 0.346004 -0.346004 1.02065 -0.337323 0.337323 -0.336083 0.336083 -0.347244 0.683327 -0.673406 0.337323 -0.346004 0.346004 -0.337323 0.337323 -0.336083 0.673406 -0.683327 0.346004 -0.337323 0.337323 -0.683327 0.337323 -0.337323 0.346004 -0.682087 0.336083 -0.674646 0.337323 -0.683327 0.346004 -0.682087 0.337323 -1.69406 0.337323 -1.02065 0.346004 -1.70274 0.337323 -1.69406 0.336083 -2.04006 0.346004 -0.337323 0.337323 -0.683327 0.337323 -0.337323 0.336083 -0.346004 1.36665 -0.336083 4.08012 0 10.1916 0.336083 0.337323 1.36665 0.346004 24.126 0 135.26 -0.346004 0.337323 -0.337323 0 -11.8944 -0.337323 -2.72339 -0.346004 -0.337323 -1.35797 -0.336083 -21.0653 -0.347244 -1.70398 0 -7.13959 0.0657284 -1.35797 -0.401811 -5.09085 -0.337323 -2.38606 -0.337323 -4.41744 -0.346004 -2.37738 -0.336083 -2.37738 -0.337323 -2.04006 -0.346004 -2.72339 -0.337323 -1.69406 -0.337323 -0.682087 -0.346004 -1.02065 -0.337323 -1.35673 -0.336083 -1.02065 -0.346004 -0.673406 -0.337323 -0.683327 -0.337323 -0.683327 -0.346004 -0.336083 -0.337323 -1.02065 -0.336083 -0.337323 -0.337323 -0.682087 -0.346004 -0.683327 -0.337323 -0.674646 -0.337323 -0.346004 -0.346004 -0.337323 -0.336083 -0.336083 -0.337323 -0.683327 -0.683327 -0.673406 -0.337323 -0.683327 -0.346004 -0.337323 -0.673406 -0.346004 -0.346004 -0.337323 -0.337323 -0.683327 -0.337323 -0.336083 -0.336083 -0.337323 -0.347244 -0.346004 -0.336083 -0.337323 -0.337323 -0.337323 -0.346004 -0.336083 -0.337323 -0.347244 -0.336083 -0.336083 -0.683327 -0.337323 -0.337323 -0.346004 -0.683327 -0.337323 -0.683327 -0.336083 -0.336083 -0.347244 -0.337323 -0.673406 -1.02065 -0.346004 -0.336083 -0.337323 -0.347244 -0.337323 -0.336083 -0.346004 -0.683327 -0.336083 -0.337323 -0.337323 -0.336083 -0.337323 -0.683327 -0.346004 -1.02065 -0.337323 -0.336083 -0.336083 -0.347244 -0.346004 -0.673406 -0.337323 -0.683327 -0.337323 -0.337323 -0.346004 -0.336083 -0.337323 -0.346004 -0.336083 -0.674646 -0.347244 -1.01941 -0.336083 -0.347244 -0.337323 -0.673406 -0.346004 -0.346004 -0.337323 -1.01073 -0.336083 -0.683327 -0.347244 -0.683327 -0.336083 -0.673406 -0.337323 -0.683327 -0.337323 -0.683327 -0.346004 -1.02065 -0.337323 -0.336083 -0.336083 -0.683327 -0.346004 -1.01073 -0.337323 -0.683327 -0.337323 -0.683327 -0.346004 -1.01941 -0.337323 -1.02065 -0.336083 -0.673406 -0.347244 -1.02065 -0.336083 -0.683327 -0.337323 -0.673406 -0.346004 -1.02065 -0.337323 -0.682087 -0.336083 -0.683327 -0.337323 -0.674646 -0.346004 -0.682087 -0.337323 -0.674646 -0.337323 -0.683327 -0.346004 -0.683327 -0.336083 -1.35673 -0.337323 -1.35673 -0.346004 -0.683327 -0.337323 -0.683327 -0.337323 -0.673406 -0.346004 -1.02065 -0.337323 -1.01941 -0.336083 -0.337323 -0.346004 -1.01941 -0.337323 -1.02065 -0.337323 -0.683327 -0.336083 -0.673406 -0.347244 -1.02065 -0.336083 -1.01941 -0.337323 -1.02065 -0.346004 -0.683327 -0.337323 -1.35673 -0.337323 -0.683327 -0.346004 -0.673406 -0.336083 -0.346004 -0.337323 -1.02065 -0.346004 -0.673406 -0.337323 -1.02065 -0.337323 -0.683327 -0.346004 -0.683327 -0.336083 -1.01073 -0.337323 -1.36541 -0.346004 -0.674646 -0.337323 -0.682087 -0.337323 -0.683327 -0.336083 -0.674646 -0.347244 -1.01941 -0.336083 -1.02065 -0.337323 -0.683327 -0.346004 -0.673406 -0.337323 -0.683327 -0.336083 -0.337323 -0.347244 -0.682087 -0.336083 -1.02065 -0.337323 -0.673406 -0.346004 -1.36665 -0.337323 -0.673406 -0.337323 -1.36665 -0.346004 -0.674646 -0.336083 -0.682087 -0.337323 -0.683327 -0.337323 -0.674646 -0.346004 -0.682087 -0.337323 -1.35797 -0.336083 -0.683327 -0.347244 -1.01941 -0.336083 -0.673406 -0.337323 -0.347244 -0.346004 -1.35673 -0.337323 -1.35673 -0.336083 -0.337323 -0.347244 -1.01941 -0.336083 -0.347244 -0.337323 -1.01941 -0.346004 -1.01073 -0.337323 -0.683327 -0.337323 -0.683327 -0.336083 -0.673406 -0.346004 -0.683327 -0.337323 -0.683327 -0.337323 -1.01941 -0.346004 -1.35797 -0.337323 -0.673406 -0.336083 -1.02065 -0.347244 -0.346004 -0.336083 -1.01941 -0.337323 -1.02065 -0.346004 -0.673406 -0.337323 -0.683327 -0.336083 -0.673406 -0.347244 -1.02065 -0.336083 -0.683327 -0.337323 -1.01941 -0.346004 -0.683327 -0.337323 -1.35673 -0.336083 -1.02065 -0.337323 -1.02065 -0.346004 -0.673406 -0.337323 -0.683327 -0.337323 -0.683327 -0.346004 -0.336083 -0.337323 -1.02065 -0.336083 -1.01941 -0.346004 -0.337323 -0.337323 -1.02065 -0.337323 -0.336083 -0.346004 -1.02065 -0.337323 -1.01941 -0.336083 -1.02065 -0.347244 -0.683327 -0.336083 -0.673406 -0.337323 -0.683327 -0.336083 -1.02065 -0.347244 -1.01941 -0.336083 -0.683327 -0.337323 -1.01941 -0.346004 -0.337323 -0.337323 -0.673406 -0.337323 -1.02065 -0.346004 -0.683327 -0.336083 -1.70274 -0.337323 -1.02065 -0.346004 -0.673406 -0.337323 -0.683327 -0.337323 -0.673406 -0.346004 -0.683327 -0.337323 -0.683327 -0.336083 -1.02065 -0.346004 -1.01941 -0.337323 -0.674646 -0.337323 -1.01941 -0.336083 -0.683327 -0.347244 -0.673406 -0.336083 -0.347244 -0.337323 -2.04006 -0.346004 -0.673406 -0.337323 -1.02065 -0.337323 -0.682087 -0.346004 -0.674646 -0.336083 -0.683327 -0.337323 -0.683327 -0.346004 -1.01941 -0.337323 -0.673406 -0.337323 -0.347244 -0.346004 -1.01941 -0.337323 -1.01073 -0.336083 -0.683327 -0.337323 -1.35673 -0.346004 -0.683327 -0.337323 -1.02065 -0.336083 -0.683327 -0.347244 -0.673406 -0.336083 -1.01941 -0.337323 -0.337323 -0.346004 -1.02065 -0.337323 -0.683327 -0.337323 -1.01941 -0.346004 -0.683327 -0.336083 -0.673406 -0.337323 -0.683327 -0.346004 -1.35673 -0.337323 -0.683327 -0.337323 -1.02065 -0.336083 -0.673406 -0.346004 -0.683327 -0.337323 -0.683327 -0.337323 -1.01073 -0.346004 -0.683327 -0.337323 -0.683327 -0.336083 -0.673406 -0.347244 -0.683327 -0.336083 -0.683327 -0.337323 -0.673406 -0.346004 -1.02065 -0.337323 -1.01941 -0.336083 -0.337323 -0.347244 -0.683327 -0.336083 -0.683327 0 -0.673406 0.336083 -0.346004 0.347244 -0.337323 0.336083 -0.336083 0.337323 -0.683327 0.346004 -0.674646 0.337323 -0.346004 0.336083 -0.337323 0.347244 -0.336083 0.673406 -0.346004 0.346004 -1.02065 0.337323 -0.337323 0.337323 -0.683327 0.346004 -0.336083 0.336083 -0.337323 0.337323 -0.683327 0.337323 -0.336083 0.346004 -0.683327 0.337323 -0.337323 0.336083 -0.683327 0.346004 -0.337323 0.337323 -0.682087 0.337323 -0.337323 0.346004 -0.683327 0.337323 -0.337323 0.336083 -0.336083 0.347244 -0.683327 9.90143 -0.337323 -0.39313 1.69406 -0.337323 2.04006 -0.337323 1.35673 -0.346004 1.02065 -0.337323 1.36665 -0.336083 1.01941 -0.346004 1.02065 0 0.673406 8.16024 0.346004 3.06071 0 0.673406 -0.346004 0.346004 -0.337323 0 -1.35673 -4.76345 -0.346004 -1.06654 0 0.39313 -2.37738 0.336083 -2.71347 0.337323 -4.76345 0.346004 -2.37738 0.337323 -2.72339 0.337323 -2.37738 0.346004 -3.05947 0.336083 -2.37738 0.337323 -2.37738 0.346004 -2.71347 0.337323 -2.04006 0.337323 -1.36665 0.346004 -1.35673 0 -1.69406 -1.02065 0 -0.683327 0.336083 -0.336083 0.337323 -1.02065 0.346004 -1.36665 0.337323 -3.73288 0.337323 -2.72339 0.336083 -1.69406 0.347244 -1.35797 0.336083 -1.01941 0.337323 -1.02065 0.346004 -0.683327 0.337323 -0.673406 0.336083 -0.346004 0.347244 -0.673406 0.336083 -0.347244 0.337323 -0.336083 0.346004 -0.337323 0.337323 -0.346004 0.337323 -0.337323 0.346004 -0.337323 0.336083 -0.346004 0.683327 -0.336083 0.337323 -0.337323 0.673406 -0.346004 0.683327 -0.337323 2.04006 0 1.35673 0.337323 1.35797 0.346004 0.683327 0.673406 0.336083 2.38731 0 0.673406 -0.336083 0.346004 -0.683327 0 -2.03138 -0.346004 -0.683327 0 -2.37738 0.346004 -0.682087 0.673406 -1.02065 0.337323 -0.337323 0.346004 -0.336083 0.337323 -0.346004 1.02065 -0.337323 0.682087 -0.337323 2.0413 -0.346004 2.71347 -0.337323 2.37738 0 -0.337323 0.337323 -0.337323 0.683327 -0.346004 0.337323 -0.336083 0.346004 -0.337323 0.673406 -0.346004 0.683327 -0.337323 0.337323 -0.337323 0.682087 -0.683327 0.337323 -0.336083 0.683327 -0.346004 0.337323 -0.337323 0.336083 -0.337323 0.683327 -0.336083 0.337323 -0.347244 0.683327 -0.336083 0.336083 -0.337323 0.347244 -0.346004 0.673406 -0.337323 0.683327 -0.337323 0.337323 -0.346004 0.336083 -0.336083 0.683327 -0.337323 0.337323 -0.346004 0.683327 -0.337323 0.336083 -0.337323 0.683327 -0.346004 0.337323 -0.337323 0.346004 -0.336083 0.337323 -0.337323 0.673406 -0.346004 0.346004 -0.337323 1.02065 -0.336083 0.673406 -0.347244 0.346004 -0.336083 0.674646 -0.337323 0.346004 -0.346004 0.337323 -0.337323 0.682087 -0.337323 0.337323 -0.346004 0.337323 -0.336083 0.683327 -0.337323 0.336083 -0.346004 0.683327 -0.337323 0.674646 -0.337323 0.346004 -0.336083 0.673406 -0.346004 0.346004 -0.337323 0.674646 -0.337323 0.346004 -0.346004 0.336083 -0.337323 0.683327 -0.336083 0.337323 -0.347244 0.337323 -0.673406 0.683327 -0.346004 0.336083 -0.337323 0.683327 -0.336083 0.673406 -0.347244 0.347244 -0.336083 0.336083 -0.337323 0.683327 -0.346004 0.337323 -0.337323 0.337323 -0.337323 0.346004 -0.336083 -1.70398 -0.346004 -0.336083 -0.337323 -2.38731 -0.337323 -0.673406 -0.346004 -1.70274 -0.337323 -1.02065 -0.336083 -1.35673 -0.346004 -0.683327 -0.337323 -1.01073 -0.337323 -0.683327 -0.346004 -1.35673 -0.337323 -0.346004 -0.336083 -0.337323 -0.347244 -1.02065 -0.336083 -1.35673 -0.337323 -0.683327 -0.337323 -0.336083 -0.346004 -0.683327 -0.336083 -1.02065 -0.337323 -1.01941 -0.346004 -0.337323 -0.337323 -1.01941 -0.337323 -1.02065 -0.346004 -0.337323 -0.337323 -0.336083 -0.336083 -0.683327 -0.346004 -1.02065 -0.337323 -0.683327 -0.337323 -0.673406 -0.346004 -1.02065 -0.337323 -1.01941 -0.336083 -1.35673 -0.337323 -1.36665 -0.346004 -0.337323 -0.337323 -1.01941 -0.337323 -1.02065 -0.346004 -1.01941 -0.336083 -1.02065 -0.337323 -0.337323 -0.346004 -0.682087 -0.337323 -1.02065 -0.337323 -1.02065 -0.346004 -0.336083 -0.337323 -1.35673 -0.336083 -1.70398 -0.346004 -0.337323 -0.337323 -1.01941 -0.337323 -0.683327 -0.336083 -0.673406 -0.347244 -0.683327 -0.336083 -0.674646 -0.337323 -0.682087 -0.346004 -1.02065 -0.337323 -1.01941 -0.336083 -0.337323 -0.347244 -0.683327 -0.336083 -0.683327 -0.337323 -1.69406 -0.346004 -1.01941 -0.337323 -0.683327 -0.337323 -0.673406 -0.346004 -1.02065 -0.336083 -1.02065 -0.337323 -0.682087 -0.346004 -0.674646 -0.337323 -0.683327 -0.337323 -0.683327 -0.336083 -1.35673 -0.347244 -0.336083 -0.336083 -1.36665 -0.337323 -1.01073 -0.346004 -1.02065 -0.337323 -1.01941 -0.336083 -0.683327 -0.347244 -0.683327 -0.336083 -1.02065 -0.337323 -1.01941 -0.346004 -0.674646 -0.337323 -0.682087 -0.336083 -1.02065 -0.347244 -0.673406 -0.336083 -1.02065 -0.337323 -1.01941 -0.337323 -1.02065 -0.346004 -1.01941 -0.337323 -0.683327 -0.336083 -1.02065 -0.346004 -0.673406 -0.337323 -1.02065 -0.337323 -1.01941 -0.346004 -0.337323 -0.337323 -1.01941 -0.336083 -1.02065 -0.347244 -1.02065 -0.336083 -0.346004 -0.337323 -1.01941 -0.346004 -1.02065 -0.337323 -1.01073 -0.336083 -1.01941 -0.347244 -0.683327 -0.336083 -0.683327 -0.337323 -1.35673 -0.337323 -0.683327 -0.346004 -0.674646 -0.336083 -1.01941 -0.337323 -0.337323 -0.346004 -0.683327 -0.337323 -1.01941 -0.337323 -1.02065 -0.346004 -1.01941 -0.337323 -1.02065 -0.336083 -1.01941 -0.346004 -0.337323 -0.337323 -1.02065 -0.337323 -0.683327 -0.346004 -1.01941 -0.337323 -0.337323 -0.336083 -1.01941 -0.337323 -1.02065 -0.346004 -0.673406 -0.337323 -0.346004 -0.337323 -1.35797 -0.346004 -0.336083 -0.336083 -2.04006 -0.337323 -0.683327 -0.346004 -0.674646 -0.337323 -0.682087 -0.337323 -0.337323 -0.346004 -0.683327 -0.337323 -1.35673 -0.336083 -0.346004 -0.346004 -1.35797 -0.337323 -0.673406 -0.337323 -0.346004 -0.336083 -0.673406 -0.347244 -1.02065 -0.336083 -1.36665 -0.337323 -0.673406 -0.346004 -0.683327 -0.337323 -1.35673 -0.337323 -1.02065 -0.346004 -0.683327 -0.336083 -0.336083 -0.337323 -0.683327 -0.346004 -0.674646 -0.337323 -0.682087 -0.337323 -0.674646 -0.346004 -1.36665 -0.337323 -0.673406 -0.336083 -1.01941 -0.346004 -1.02065 -0.337323 -0.683327 -0.337323 -0.673406 -0.336083 -1.02065 -0.347244 -0.683327 -0.336083 -1.01941 -0.337323 -0.683327 -0.346004 -0.673406 -0.337323 -0.683327 -0.336083 -1.02065 -0.347244 -0.673406 -0.336083 -0.683327 -0.337323 -1.35673 -0.346004 -1.02065 -0.337323 -0.683327 -0.337323 -0.682087 -0.346004 -1.01073 -0.336083 -0.683327 -0.337323 -1.02065 -0.337323 -1.35673 -0.346004 -0.346004 -0.337323 -0.674646 -0.336083 -0.683327 -0.347244 -1.35673 -0.336083 -0.683327 -0.337323 -0.673406 -0.346004 -1.02065 -0.337323 -1.01941 -0.336083 -0.683327 -0.347244 -1.02065 -0.336083 -1.01941 -0.337323 -0.337323 -0.346004 -0.683327 -0.337323 -1.01941 -0.336083 -0.673406 -0.337323 -0.683327 -0.346004 -1.02065 -0.337323 -0.337323 -0.337323 -1.01941 -0.346004 -1.70398 -0.337323 -0.673406 -0.336083 -0.683327 -0.346004 -0.683327 -0.337323 -0.673406 -0.337323 -1.01941 -0.346004 -0.683327 -0.337323 -1.02065 -0.336083 -0.673406 -0.347244 -0.683327 -0.336083 -0.683327 -0.337323 -1.02065 -0.346004 -0.673406 -0.337323 -1.35673 -0.336083 -1.02065 -0.337323 -1.01941 -0.346004 -1.02065 -0.337323 -0.683327 -0.337323 -0.673406 -0.346004 -0.683327 -0.337323 -0.337323 -0.336083 -1.36541 -0.346004 -0.674646 -0.337323 -1.36541 -0.337323 -0.674646 -0.346004 -0.683327 -0.337323 -1.35673 -0.336083 -0.683327 -0.347244 -1.01941 -0.336083 -0.674646 -0.337323 -1.01941 -0.337323 -0.683327 -0.346004 -1.01941 -0.336083 -1.02065 -0.337323 -0.337323 -0.346004 -0.683327 -0.337323 -0.673406 -0.337323 -1.01941 -0.346004 -0.683327 -0.336083 -1.69406 -0.337323 -0.683327 -0.346004 -0.683327 -0.337323 -1.01941 -0.337323 -1.02065 -0.346004 -0.337323 -0.337323 -1.01941 -0.336083 -0.337323 -0.337323 -1.35673 -0.346004 -0.683327 -0.337323 -1.02065 -0.336083 -0.336083 -0.347244 -1.02065 -0.336083 -1.01941 -0.337323 -1.35797 -0.346004 -0.682087 -0.337323 -1.02065 -0.337323 -0.683327 -0.346004 -1.35673 -0.336083 -0.337323 -0.337323 -1.35673 -0.346004 -0.346004 -0.337323 -1.02065 -0.337323 -1.01941 -0.346004 -1.35673 -0.336083 -0.337323 -0.337323 -0.683327 -0.337323 -1.69406 -0.346004 -0.683327 -0.337323 -0.683327 -0.336083 -1.35673 -0.347244 -0.683327 -0.336083 -0.336083 -0.337323 -0.337323 -0.346004 -0.683327 -0.337323 -0.337323 -0.683327 -0.336083 -1.01941 -0.346004 -0.337323 -0.337323 -0.673406 -0.337323 -0.683327 -0.346004 -0.683327 -0.337323 -1.02065 -0.336083 -1.01941 -0.683327 -0.673406 -0.337323 -0.347244 -0.346004 -0.673406 -0.337323 -0.683327 -0.336083 -0.673406 -0.337323 -0.346004 -0.346004 -0.337323 -0.674646 -0.683327 -0.346004 -0.673406 -0.337323 -0.346004 -0.336083 -0.674646 -0.346004 -0.346004 -0.337323 -0.337323 -0.683327 -0.336083 -0.337323 -0.347244 -0.336083 -0.336083 -0.347244 -0.337323 -0.336083 -0.337323 -0.337323 -0.346004 -0.683327 -0.336083 -0.673406 -0.337323 -0.346004 -0.346004 -0.674646 -0.337323 -0.346004 -0.337323 -0.337323 -0.346004 -0.336083 -0.337323 -1.02065 -0.336083 -0.346004 -0.346004 -0.337323 -0.337323 -0.336083 -0.337323 -0.346004 -0.346004 -0.337323 -0.337323 -0.337323 -0.336083 -0.683327 -0.683327 -0.336083 -1.02065 0 -0.336083 0.336083z" class="fil1" id="_223009816"></path>
   <path d="M399.374 460.721l0 0zm17.6685 -11.2197l-0.683327 0.346004 -0.673406 0.336083 -0.683327 0.337323 -0.337323 0.346004 -0.346004 0.337323 -0.337323 1.01941 -0.336083 1.02065 -0.337323 1.35673 -0.346004 1.35673 -3.06071 -1.01941 -0.337323 -0.673406 -0.336083 -0.347244 -1.02065 -0.336083 -1.35673 0 -0.683327 0.336083 -0.683327 0.347244 -0.336083 0.336083 -0.337323 0.337323 -0.683327 0.346004 -0.337323 0.337323 -0.682087 0.683327 -0.337323 0.336083 -0.346004 0.337323 -0.337323 0.683327 -0.337323 0.337323 -0.336083 0.336083 -0.347244 0.346004 -0.336083 0.337323 -0.337323 0.337323 -0.346004 0.683327 -0.337323 0.336083 -0.336083 0.346004 0.336083 -1.70274 0.337323 -1.35673 0 -2.04006 -0.337323 -0.337323 -0.683327 -0.346004 -1.01941 0 -1.02065 0.346004 -1.01073 0.337323 -0.683327 0.336083 -0.683327 0.347244 -0.336083 0.336083 -1.02065 0.337323 -0.336083 0.337323 -0.683327 0.346004 -0.337323 0.337323 -0.346004 0.336083 -0.674646 0.346004 -0.336083 0.337323 -0.346004 0.337323 -0.337323 0.346004 -0.337323 0.337323 -0.346004 0.336083 -0.337323 0.346004 0 1.02065 0.337323 0.337323 0.346004 0.336083 1.02065 0 0.336083 -0.336083 0.337323 -0.337323 0.337323 -0.346004 0.683327 -0.337323 0.336083 -0.337323 0.347244 -0.346004 0.336083 -0.336083 0.337323 -0.337323 0.683327 -0.346004 0 1.70274 -0.337323 1.69406 -0.346004 1.36665 -0.337323 1.35673 -0.336083 2.37738 -0.347244 1.70274 -0.336083 1.02065 -0.337323 1.35673 -0.346004 1.01941 -0.337323 1.35797 -0.337323 1.01941 -0.336083 1.35673 -0.346004 1.36665 0 1.69406 4.76345 0 0.336083 -1.35673 0.337323 -1.70398 0.346004 -1.01941 0.337323 -1.35673 0.337323 -1.35797 0.336083 -1.35673 0.346004 -1.01941 0.337323 -1.36665 0.337323 -1.01073 0.346004 -1.02065 0.337323 -1.01941 0.336083 -0.683327 0.347244 -0.683327 0.336083 -0.337323 0.337323 -0.336083 0.346004 -0.683327 0.337323 -0.337323 0.336083 -0.346004 0.347244 -0.673406 0.673406 -0.337323 0.337323 -0.346004 0.346004 -0.337323 0.337323 -0.337323 0.336083 -0.346004 0.683327 -0.336083 0.683327 -0.337323 0.673406 -0.346004 0.683327 -0.337323 1.02065 -0.337323 0.336083 -0.346004 0.347244 1.36665 4.12601 0.00868111 -0.39189 1.34805 -0.337323 1.02065 -0.346004 2.71347 -0.337323 1.02065 -0.337323 1.36541 -0.346004 1.35797 -0.337323 1.01941 -0.336083 1.35673 -0.346004 1.02065 -0.337323 1.70274 -0.337323 1.69406 0 3.06071 0.337323 1.01941 0.337323 0.337323 0.682087 0.346004 0.683327 0.337323 1.35797 0 1.35673 -0.337323 1.35673 -0.346004 0.683327 -0.337323 0.683327 -0.336083 0.336083 -0.346004 0.337323 -0.337323 0.683327 -0.337323 0.337323 -0.346004 0.682087 -0.337323 0.337323 -0.336083 0.683327 -0.347244 0.337323 -0.336083 0.336083 -0.337323 0.683327 -0.346004 0.337323 -0.337323 0.683327 -0.336083 0.336083 -0.347244 0.347244 -0.336083 0.673406 -0.337323 0 -1.02065 -0.337323 -0.682087 -0.336083 -0.337323 -0.347244 -0.337323 -0.673406 0 -0.346004 0.337323 -0.337323 0.337323 -0.336083 0.346004 -0.347244 0.336083 -0.673406 0.337323 -0.337323 0.346004 -0.346004 0.337323 -0.673406 0.337323 -0.683327 0.336083 -1.02065 0.347244 -0.336083 0.336083 -2.04006 0 0 -1.35673 0.336083 -1.70274 0.337323 -1.69406 0.346004 -1.02065 0.337323 -1.35673 0.336083 -1.02065 0.347244 -1.36541 0.336083 -1.02065 0.337323 -2.71347 0.346004 -1.02065 0.337323 -1.46959 0.337323 0.112854 5.43685 0 0.346004 -0.346004 0.337323 -1.35673 0 -1.02065 -5.43809 -0.673406 0.337323 -1.70398 0.346004 -1.35673 0.337323 -1.02065 0.337323 -1.35673 0.336083 -1.01941 0 -0.683327 -1.69406 0 -1.01941 0.337323z" class="fil2" id="_223013032"></path>
   <polygon points="456.807,455.622 456.124,455.958 455.788,456.305 455.105,456.641 454.084,456.979 453.747,457.316 453.411,457.662 453.065,457.999 452.39,458.335 452.044,458.681 451.707,459.019 451.371,459.702 451.023,460.039 450.687,460.375 450.687,461.742 451.371,462.079 452.39,462.079 453.065,461.742 453.411,461.396 453.747,461.059 454.084,460.721 454.421,460.375 455.105,460.039 455.441,459.702 456.124,459.356 456.124,460.375 455.788,462.079 455.441,463.436 455.105,464.455 454.767,465.813 454.421,466.497 454.084,467.853 453.747,469.21 453.411,470.231 453.065,471.25 452.727,472.953 452.39,474.311 452.044,476.014 452.044,479.074 452.39,479.748 453.065,480.094 453.747,480.431 455.441,480.431 456.461,480.094 457.828,479.748 458.164,479.411 458.847,479.074 459.185,478.728 459.522,478.391 460.204,478.054 460.542,477.708 460.879,477.37 461.225,476.687 461.898,476.351 462.246,476.014 462.582,475.668 463.265,476.014 463.602,477.034 463.938,477.708 464.286,478.391 464.622,478.728 464.959,479.074 465.305,479.411 465.642,479.748 467.336,480.094 469.039,480.431 471.754,480.431 473.794,480.094 475.159,479.748 475.834,479.411 476.18,479.074 476.853,478.728 477.199,478.391 477.537,478.391 477.874,478.391 478.21,477.37 478.557,477.034 478.893,476.687 479.231,475.33 479.577,474.994 479.914,472.953 479.914,471.596 479.577,470.577 479.231,469.556 478.893,468.537 478.557,467.853 478.21,467.516 477.874,466.833 477.537,466.497 477.199,466.159 476.853,465.813 476.18,465.476 475.834,465.139 475.497,464.455 474.813,463.773 474.476,463.436 474.14,462.415 473.794,461.742 473.457,460.721 473.457,460.375 473.794,459.356 474.14,458.681 474.476,457.999 475.834,457.662 476.18,457.662 476.853,457.999 477.537,458.681 478.21,459.356 478.557,460.039 478.893,460.375 479.231,460.721 480.251,461.059 481.271,461.059 482.291,460.721 482.975,460.375 482.975,460.039 482.975,459.702 482.975,457.316 482.637,456.979 482.291,456.641 481.954,456.305 481.617,455.958 480.933,455.622 479.914,455.284 474.813,455.284 474.14,455.622 473.457,455.958 472.773,456.305 472.1,456.641 471.416,456.979 471.079,457.316 470.743,457.662 470.396,457.999 470.06,458.335 469.722,459.019 469.376,459.702 469.376,465.139 469.722,465.813 470.06,466.497 470.396,466.833 470.743,467.516 471.079,467.853 471.416,468.2 471.754,468.873 472.1,469.21 472.436,469.556 472.773,469.894 473.119,470.231 473.457,470.577 473.794,470.913 474.14,471.596 474.476,472.271 474.813,472.617 475.159,473.636 475.159,474.647 474.813,475.668 474.476,476.014 474.14,476.687 473.794,477.034 473.457,477.37 472.436,477.708 469.722,477.708 469.039,477.37 468.702,477.034 468.356,476.687 468.02,473.636 467.682,473.29 467.336,472.953 466.662,472.617 464.959,472.617 464.286,472.953 463.938,473.29 463.602,473.974 463.265,473.974 462.919,473.29 461.562,473.29 461.225,473.636 460.879,473.974 460.542,474.311 460.204,474.647 459.522,474.994 459.185,475.33 458.501,475.668 458.164,476.014 457.481,474.311 457.828,472.953 458.164,471.25 458.501,470.577 458.847,469.21 459.185,467.853 459.522,466.833 459.868,465.813 460.204,464.793 460.542,463.436 460.879,462.415 461.225,460.375 461.562,459.356 461.898,457.999 461.898,455.958 461.562,455.622 461.225,455.284 457.828,455.284" class="fil2" id="_223013152"></polygon>
   <path d="M516.955 461.396l-0.337323 0.683327 -0.336083 1.69406 -0.346004 1.01941 -0.337323 1.36665 -0.337323 1.01941 -0.346004 1.02065 -0.337323 1.35673 -0.336083 1.02065 -0.346004 0.673406 -0.337323 0.683327 -0.337323 0.683327 -0.346004 0.336083 -0.337323 0.337323 -0.336083 0.346004 -0.337323 0.337323 -0.346004 0.337323 -0.337323 0.336083 -0.683327 0.347244 -0.673406 0.336083 -0.683327 0.337323 -1.35673 0 -0.683327 -0.337323 -0.337323 -0.336083 -0.346004 -0.347244 0 -4.4162 0.346004 -1.35797 0.337323 -1.35673 0.337323 -0.683327 0.346004 -0.673406 0.336083 -0.683327 0.337323 -0.683327 0.346004 -0.673406 0.337323 -0.683327 0.337323 -0.683327 0.346004 -0.337323 0.337323 -0.673406 0.682087 -0.346004 0.674646 -0.674646 0.683327 -0.346004 0.673406 -0.336083 1.36665 -0.337323 2.71347 0 0.346004 0.337323 -0.346004 1.35673zm4.41744 -6.79483l-0.337323 0.337323 -0.336083 0.346004 -0.347244 0.337323 -3.73412 0 -1.70274 0.336083 -0.673406 0.347244 -1.02065 0.336083 -1.35673 0.337323 -0.683327 0.337323 -0.337323 0.346004 -0.682087 0.337323 -0.337323 0.336083 -0.683327 0.683327 -0.337323 0.337323 -0.346004 0.346004 -0.337323 0.337323 -0.336083 0.336083 -0.346004 0.346004 -0.337323 0.337323 -0.337323 0.337323 -0.346004 0.346004 -0.337323 0.337323 -0.336083 0.336083 -0.337323 0.337323 -0.346004 1.02065 -0.337323 0.682087 -0.337323 0.337323 -0.346004 0.683327 -0.336083 0.337323 -0.337323 0.683327 -0.346004 0.682087 -0.337323 0.674646 -0.337323 0.683327 -0.346004 1.01941 -0.337323 1.02065 -0.336083 1.01941 -0.346004 2.04006 0 2.71471 0.346004 1.35673 0.336083 1.02065 0.337323 0.346004 0.346004 0.336083 0.337323 0.337323 0.683327 0.346004 1.01941 0.337323 2.03138 0 1.02065 -0.337323 1.36541 -0.346004 0.674646 -0.337323 0.683327 -0.336083 0.682087 -0.683327 0.337323 -0.337323 0.337323 -0.346004 0.346004 -0.337323 0.337323 -0.336083 0.673406 -0.347244 0.346004 -0.336083 0.337323 -0.337323 0 0.673406 -0.337323 1.36665 0 1.69406 0.337323 0.346004 0.683327 0.337323 1.69406 0 1.36541 -0.337323 1.35797 -0.346004 0.673406 -0.337323 0.346004 -0.336083 0.673406 -0.346004 0.347244 -0.337323 0.336083 -0.337323 0.683327 -0.346004 0.337323 -0.337323 0.337323 -0.336083 0.346004 -0.347244 0.673406 -0.336083 0.337323 -0.683327 0.683327 -0.337323 0.336083 -0.336083 0 -1.02065 -0.336083 -0.683327 -0.337323 -0.337323 -0.683327 0 -0.337323 0.337323 -0.336083 0.346004 -0.346004 0.337323 -0.337323 0.337323 -0.683327 0.336083 -0.673406 0.347244 -0.683327 0.336083 -0.683327 0.337323 -0.730453 0.337323 0.39313 -2.03138 0.337323 -3.39679 0.346004 -1.02065 0.337323 -1.35673 0.336083 -1.36665 0.347244 -1.01941 0.336083 -1.35797 0.337323 -1.35673 0.346004 -1.01941 0.337323 -0.683327 0.337323 -1.02065 0.346004 -1.69406 0.336083 -1.01941 0.337323 -1.02065 0 -2.37614 -1.35673 0 -0.683327 0.336083z" class="fil2" id="_223013080"></path>
   <polygon points="446.27,454.938 445.932,455.284 445.586,455.958 445.586,457.662 445.932,458.681 446.27,459.019 446.607,459.702 446.607,462.753 446.27,463.773 445.932,464.793 445.586,465.476 445.249,466.159 444.913,466.497 444.567,467.179 444.23,467.853 443.892,468.2 443.546,468.873 443.209,469.21 442.873,469.894 442.536,470.231 442.19,470.577 441.852,470.913 441.515,471.25 441.169,471.596 440.833,471.934 440.496,472.271 439.812,472.953 439.475,473.29 439.129,473.636 438.793,473.974 438.456,474.311 438.11,474.647 437.772,474.994 437.089,475.33 436.752,475.668 436.078,475.668 435.732,474.994 435.395,472.953 435.059,471.596 435.002,467.507 435.395,466.159 435.732,465.139 436.078,464.119 436.415,463.099 436.752,462.415 437.089,461.742 437.435,461.396 437.772,460.721 438.11,460.039 438.456,459.356 438.793,458.335 439.475,457.999 440.15,457.662 440.496,457.316 440.496,455.622 440.15,455.284 439.475,454.938 438.456,454.938 437.435,455.284 436.752,455.622 431.652,455.958 429.958,456.305 428.937,456.641 427.235,456.979 426.897,457.316 426.214,457.662 425.878,457.999 425.541,458.335 425.203,458.681 424.857,459.019 424.52,460.375 424.52,463.436 424.857,464.119 425.203,464.455 427.581,464.455 427.918,463.773 427.918,461.742 427.581,461.059 427.581,460.721 427.918,460.039 428.254,459.702 428.937,459.356 429.621,459.019 430.977,458.681 433.355,458.335 434.038,458.335 433.692,458.681 433.355,459.356 433.017,459.702 432.335,460.375 431.998,461.059 431.652,461.396 431.315,461.742 430.977,462.415 430.641,463.099 430.294,464.119 429.958,465.139 429.621,466.497 429.621,470.577 429.958,472.953 430.294,474.994 430.641,476.687 430.977,478.391 431.315,479.748 431.652,481.105 433.355,481.105 434.038,480.769 434.712,480.094 435.732,479.748 436.415,479.411 437.089,479.074 437.435,478.728 437.772,478.391 438.456,478.054 438.793,477.37 439.475,477.034 439.812,476.687 440.15,476.351 440.496,476.014 440.833,475.668 441.515,475.33 441.852,474.994 442.19,474.647 442.536,474.311 442.873,473.974 443.209,473.636 443.546,473.29 443.892,472.617 444.23,472.271 444.567,471.934 444.913,471.596 445.249,471.25 445.932,470.577 446.27,469.894 446.607,469.556 446.953,469.21 447.289,468.537 447.627,467.516 447.973,466.833 448.31,466.159 448.647,465.476 448.983,464.793 449.33,463.773 449.667,462.415 450.004,461.059 450.004,456.979 449.667,455.958 449.33,455.284 448.983,454.938 448.647,454.601 446.607,454.601" class="fil3" id="_223012768"></polygon>
   <polygon points="493.848,449.502 493.165,449.848 492.146,450.184 491.808,450.521 491.472,450.867 491.125,451.204 490.789,452.224 490.452,453.244 490.106,454.601 489.768,455.958 485.015,456.979 484.668,457.662 484.668,459.702 488.805,459.711 488.412,461.059 488.074,462.079 487.728,463.436 487.391,464.793 487.055,466.833 486.709,468.2 486.372,469.556 486.034,470.577 485.688,471.934 485.351,473.636 485.015,475.668 485.015,478.054 485.351,479.411 485.688,479.748 486.372,480.094 487.055,480.431 488.412,480.431 489.768,480.094 491.125,479.748 491.808,479.411 492.146,479.074 492.829,478.728 493.165,478.391 493.848,478.054 494.186,477.708 494.869,477.37 495.206,477.034 495.543,476.687 496.563,476.351 496.909,475.668 497.583,475.33 498.266,474.994 498.603,474.647 498.949,474.311 499.287,473.974 499.623,473.636 499.623,472.617 499.287,472.271 498.949,471.934 498.603,471.596 497.93,471.596 497.583,471.934 496.909,472.271 496.563,472.617 496.226,472.953 495.889,473.29 495.543,473.636 494.869,473.974 494.532,474.311 493.848,474.647 492.829,474.994 492.146,475.33 490.452,475.33 490.452,473.974 490.789,472.271 491.125,470.577 491.472,469.556 491.808,468.2 492.146,467.179 492.492,464.793 492.829,463.436 493.165,462.079 493.512,461.059 493.848,460.039 499.623,459.702 499.97,459.356 500.306,457.662 500.306,456.979 495.206,456.979 494.859,457.072 494.869,455.958 495.206,454.601 495.543,453.244 495.889,452.224 496.226,450.867 496.226,449.164 494.869,449.164" class="fil2" id="_223012720"></polygon>
   <polygon points="461.225,443.39 460.542,443.726 460.204,444.747 460.204,447.808 460.542,448.144 460.879,448.481 463.938,448.481 464.622,448.144 464.959,447.808 465.305,447.124 465.305,443.726 464.622,443.39 464.286,443.044 461.898,443.044" class="fil2" id="_223012528"></polygon>
   <polygon points="389.856,478.391 389.856,478.054 389.519,478.054 389.519,478.391" class="fil4" id="_223010296"></polygon>
  </g>
 </g>
</svg>
